<svg xmlns="http://www.w3.org/2000/svg" viewBox="0 0 40 35.13"><defs><style>.cls-1{fill:#252525}</style></defs><title>pending_warning</title><g id="Layer_2" data-name="Layer 2"><g id="Basic"><g id="Notices"><g id="Icons"><g id="icon-pending-warning_40_" data-name="icon-pending-warning (40)"><rect class="cls-1" x="13" y="25.52" width="2" height="2" rx=".97" ry=".97"/><rect class="cls-1" x="19" y="25.52" width="2" height="2" rx=".97" ry=".97"/><rect class="cls-1" x="25" y="25.52" width="2" height="2" rx=".97" ry=".97"/><path class="cls-1" d="M37.91 35.13H2.09A2.09 2.09 0 0 1 .28 32L18.19 1a2.15 2.15 0 0 1 3.61 0l17.92 31a2.09 2.09 0 0 1-1.81 3.13zM20 1.88L2 33l.12.21h35.79l1-.7L38 33 20.12 2a.13.13 0 0 0-.12-.12z"/></g></g></g></g></g></svg>