<svg xmlns="http://www.w3.org/2000/svg" xmlns:xlink="http://www.w3.org/1999/xlink" width="43" height="60" viewBox="0 0 43 60">
    <defs>
        <path id="a" d="M0 0h42.65v59.26H0z"/>
    </defs>
    <g fill="none" fill-rule="evenodd">
        <path fill="#006AC3" d="M17.259 6.041h-4.684a.37.37 0 1 0 0 .741h4.684a.37.37 0 0 0 0-.74"/>
        <g transform="translate(0 .74)">
            <mask id="b" fill="#fff">
                <use xlink:href="#a"/>
            </mask>
            <path fill="#006AC3" d="M40.398 45.154l-10.826 11.81c-.373.407-1.081.407-1.453 0L17.273 45.132a.984.984 0 0 1 .003-1.339c.177-.198.457-.312.772-.312h4.882V32.632c0-.543.442-.984.985-.984h9.861c.542 0 .985.441.985.984v10.85h4.933c.413 0 .789.245.914.596.2.56-.073.931-.21 1.076zM2.96 50.787a.986.986 0 0 1-.985-.986v-7.026h13.608a2.953 2.953 0 0 0 .232 3.692l3.96 4.32H2.96zM1.975 9.74h25.883v19.933h-3.943a2.963 2.963 0 0 0-2.96 2.96v8.874h-2.907c-.635 0-1.236.19-1.73.528H1.975V9.74zm0-6.78c0-.542.442-.985.985-.985h23.913c.543 0 .985.443.985.985V9H1.975V2.96zm40.493 40.455c-.407-1.142-1.522-1.908-2.775-1.908h-2.957v-8.875a2.963 2.963 0 0 0-2.96-2.959h-3.943V2.96A2.963 2.963 0 0 0 26.873 0H2.96A2.963 2.963 0 0 0 0 2.96V49.8a2.963 2.963 0 0 0 2.96 2.961h18.626l5.078 5.539c.559.61 1.354.96 2.181.96.828 0 1.623-.35 2.182-.96l10.816-11.8c.773-.816 1.012-1.998.625-3.085z" mask="url(#b)"/>
        </g>
    </g>
</svg>
