<svg xmlns="http://www.w3.org/2000/svg" xmlns:xlink="http://www.w3.org/1999/xlink" width="60" height="58" viewBox="0 0 60 58">
    <defs>
        <path id="a" d="M0 .385h60V57H0z"/>
    </defs>
    <g fill="none" fill-rule="evenodd">
        <path fill="#006AC3" d="M53.766 18.8c0-4.025-3.216-7.305-6.564-7.379 3.69.433 6.564 3.575 6.564 7.38"/>
        <g transform="translate(0 .365)">
            <mask id="b" fill="#fff">
                <use xlink:href="#a"/>
            </mask>
            <path fill="#006AC3" d="M58 39H41.534a5.776 5.776 0 0 1-5.769-5.768v-.463A5.775 5.775 0 0 1 41.535 27H58v12zm-4.235 8.565c0 4.1-3.335 7.435-7.434 7.435H2v-3.625H46a3.9 3.9 0 0 0 3.89-3.89v-6.484h3.874v6.564zM2 15.375H46a3.143 3.143 0 0 1 3.14 3.14V25h-7.607c-4.272 0-7.768 3.497-7.768 7.769v.463c0 4.272 3.496 7.769 7.768 7.769h7.607v6.484a3.143 3.143 0 0 1-3.14 3.14H2v-35.25zM2 11H46.33c.294 0 .585.022.871.056 3.348.073 6.563 3.354 6.563 7.38V25h-3.874v-6.486c0-2.139-1.75-3.89-3.89-3.89H2V11zM37.97 2.422a.864.864 0 0 1 1.082.596L40.745 9H15.734L37.97 2.422zM58.131 25h-2.365v-6.564C55.766 13.246 51.52 9 46.33 9h-3.507l-1.846-6.526A2.848 2.848 0 0 0 39.602.742a2.852 2.852 0 0 0-2.199-.238L8.681 9H1.869A1.875 1.875 0 0 0 0 10.869V55.13C0 56.158.84 57 1.87 57h44.46c5.19 0 9.436-4.246 9.436-9.435V41h2.365a1.875 1.875 0 0 0 1.87-1.87V26.87A1.875 1.875 0 0 0 58.13 25z" mask="url(#b)"/>
        </g>
        <path fill="#006AC3" d="M47.016 11.412c.062 0 .124.008.186.01a7.438 7.438 0 0 0-.871-.056H8.207l1.45.046h37.36zM41.714 35.638a2.223 2.223 0 0 1-2.221-2.22c0-1.224.996-2.22 2.22-2.22 1.225 0 2.22.996 2.22 2.22 0 1.224-.995 2.22-2.22 2.22m0-5.19a2.97 2.97 0 1 0 0 5.94 2.97 2.97 0 0 0 0-5.94"/>
    </g>
</svg>
