<svg xmlns="http://www.w3.org/2000/svg" xmlns:xlink="http://www.w3.org/1999/xlink" width="60" height="50" viewBox="0 0 60 50">
    <defs>
        <path id="a" d="M0 0h60v49.656H0z"/>
    </defs>
    <g fill="none" fill-rule="evenodd">
        <mask id="b" fill="#fff">
            <use xlink:href="#a"/>
        </mask>
        <path fill="#006AC3" d="M30.685 46.93l10.43-33.581h16.792L30.685 46.93zM2.139 13.349H18.53l10.271 33.544L2.14 13.35zM7.814 2.246c.005-.009.013-.015.018-.024l10.109 10.4H2c.006-.011.007-.024.014-.036l5.8-10.34zm23.607-.31h19.45L40.856 12.45 31.421 1.935zM18.793 12.457L8.566 1.935h19.956l-9.73 10.523zM29.51 1.935h.936l9.587 10.688H19.63l9.88-10.688zm.236 45.566L19.29 13.349h21.064L29.747 47.5zm28.23-34.878H41.695L51.649 2.17c.018.022.045.033.06.058l6.269 10.394zm1.66-.999L53.366 1.23A2.557 2.557 0 0 0 51.189 0H8.344c-.918 0-1.769.497-2.218 1.3l-5.8 10.34a2.533 2.533 0 0 0 .228 2.825l27.209 34.232a2.53 2.53 0 0 0 1.979.96h.012c.77 0 1.49-.343 1.975-.942l27.705-34.176c.672-.829.753-2 .202-2.915z" mask="url(#b)"/>
    </g>
</svg>
