<svg xmlns="http://www.w3.org/2000/svg" viewBox="0 0 40 40"><defs><style>.cls-1{fill:#006ac3}</style></defs><title>Confim_approved</title><g id="Layer_2" data-name="Layer 2"><g id="Basic"><g id="Notices"><g id="Icons"><g id="icon-confirm-approved_40_" data-name="icon-confirm-approved (40)"><path class="cls-1" d="M20 40a20 20 0 1 1 20-20 20 20 0 0 1-20 20zm0-38.1A18.1 18.1 0 1 0 38.1 20 18.12 18.12 0 0 0 20 1.9z"/><path class="cls-1" d="M18.06 28.19a1 1 0 0 1-.72-.33l-6.56-7.54a1 1 0 0 1 1.44-1.25l5.83 6.71 11.64-13.65a1 1 0 1 1 1.45 1.24L18.79 27.86a1 1 0 0 1-.72.33z"/></g></g></g></g></g></svg>