<svg xmlns="http://www.w3.org/2000/svg" xmlns:xlink="http://www.w3.org/1999/xlink" width="60" height="60" viewBox="0 0 60 60">
    <defs>
        <path id="a" d="M0 0h60v59.948H0z"/>
    </defs>
    <g fill="none" fill-rule="evenodd">
        <mask id="b" fill="#fff">
            <use xlink:href="#a"/>
        </mask>
        <path fill="#006AC3" d="M58.126 7.883c-.356 1.92-1.432 3.856-3.03 5.453L23.694 44.74c-.755.755-1.75 1.554-2.877 2.31-3.246 2.174-6.66 3.448-8.843 3.448-.836 0-1.492-.186-1.888-.582-1.427-1.428-.141-6.241 2.867-10.73.758-1.13 1.557-2.126 2.31-2.878L46.664 4.903c3.332-3.331 7.933-4.15 10.258-1.825 1.14 1.14 1.567 2.846 1.204 4.805zm-6.04 42.161l-2.72 2.722L38.8 32.125l6.734-6.735 6.552 24.654zm-29.774 6.497l-1.281 1.28-6.025-6.023.458-.148c2.842-.912 5.36-2.486 6.32-3.13l.594-.404-.066 8.425zM8.35 44.536l-.147.457-5.87-5.868-.205-.22.205-.195 1.073-1.074 8.511-.066-.366.54-.063.093-.018.025c-.647.969-2.21 3.473-3.12 6.308zM7.183 10.583l2.72-2.722 24.656 6.552-6.735 6.735L7.183 10.583zM52.033.115c-2.355.375-4.704 1.632-6.614 3.543l-9.338 9.336-5.67-1.506.245-.345a1.478 1.478 0 0 0-.16-1.904 1.486 1.486 0 0 0-2.1 0l-1.352 1.354-4.97-1.321.168-.325a1.478 1.478 0 0 0-.268-1.73 1.476 1.476 0 0 0-1.05-.435c-.396 0-.768.154-1.048.434L18.713 8.38l-8.847-2.35a.885.885 0 0 0-.85.227l-3.935 3.936a.885.885 0 0 0 .222 1.409l21.28 10.892L14.016 35.06c-.195.195-.398.41-.603.64l-.086.097-10.295.081a.874.874 0 0 0-.615.258l-2.16 2.159a.882.882 0 0 0 0 1.246l7.522 7.52-.014.14c-.174 1.74.187 3.073 1.075 3.96.887.887 2.22 1.248 3.96 1.075l.14-.014 7.468 7.469a.883.883 0 0 0 1.246 0l2.159-2.16a.872.872 0 0 0 .258-.615l.08-10.195.097-.087c.252-.223.485-.442.692-.649L37.49 33.434l10.857 21.212a.88.88 0 0 0 1.408.221l3.936-3.936a.88.88 0 0 0 .228-.848l-2.35-8.848 1.162-1.163c.28-.28.435-.652.435-1.049 0-.396-.155-.769-.434-1.05A1.48 1.48 0 0 0 51 37.707l-.325.168-1.32-4.97 1.353-1.352a1.486 1.486 0 0 0 0-2.099 1.48 1.48 0 0 0-1.904-.161l-.344.244-1.486-5.587 9.367-9.367c1.91-1.911 3.17-4.26 3.543-6.615.39-2.46-.22-4.638-1.717-6.135C56.67.335 54.492-.275 52.033.115z" mask="url(#b)"/>
    </g>
</svg>
