<svg xmlns="http://www.w3.org/2000/svg" xmlns:xlink="http://www.w3.org/1999/xlink" width="52" height="60" viewBox="0 0 52 60">
    <defs>
        <path id="a" d="M0 0h51.524v60H0z"/>
    </defs>
    <g fill="none" fill-rule="evenodd">
        <mask id="b" fill="#fff">
            <use xlink:href="#a"/>
        </mask>
        <path fill="#006AC3" d="M48.605 25.714c-1.157-.67-2.416-.997-3.85-.997-1.588 0-2.92.385-4.193 1.214l-.77.5-.057-.913c-.472-7.542-2.713-14.24-6.15-18.376l-1.286-1.547 1.887.71c8.158 3.07 13.99 10.302 15.218 18.874l.156 1.088-.955-.553zm-11.424.818c-2.845-1.103-7.327-1.815-11.419-1.815-4.091 0-8.574.712-11.42 1.815l-.774.3.047-.826c.322-5.662 1.707-10.956 3.902-14.908 2.27-4.093 5.2-6.347 8.245-6.347 3.046 0 5.975 2.254 8.246 6.347 2.194 3.952 3.58 9.246 3.902 14.908l.047.827-.776-.301zM11.79 25.518l-.057.913-.77-.5c-1.271-.829-2.604-1.214-4.192-1.214-1.433 0-2.693.326-3.852.997l-.954.552.156-1.087C3.35 16.607 9.18 9.376 17.338 6.305l1.887-.71-1.285 1.547c-3.438 4.136-5.679 10.833-6.15 18.376zM27.194 2.98l-.505-.028V.922a.925.925 0 0 0-1.853 0v2.031l-.505.028C10.688 3.733 0 14.962 0 28.546c0 .119.025.237.072.351a.915.915 0 0 0 .5.5h.002c.23.094.474.095.705 0a.924.924 0 0 0 .301-.199c1.426-1.417 2.654-2.638 5.19-2.638 2.538 0 3.766 1.222 5.189 2.636a.889.889 0 0 0 .3.2.897.897 0 0 0 .707 0 .945.945 0 0 0 .303-.199c1.091-1.085 5.776-2.39 11.01-2.603l.557-.022v26.69c0 2.7-2.206 4.895-4.917 4.895-2.712 0-4.918-2.195-4.918-4.894a.926.926 0 0 0-1.852 0c0 3.715 3.036 6.737 6.77 6.737 3.732 0 6.77-3.022 6.77-6.737v-26.69l.556.021c5.236.213 9.92 1.518 11.01 2.604.084.083.189.15.302.198a.9.9 0 0 0 .706 0 .892.892 0 0 0 .3-.197c1.426-1.418 2.654-2.639 5.192-2.639 2.538 0 3.765 1.221 5.187 2.636a.932.932 0 0 0 1.008.201.922.922 0 0 0 .574-.85c0-13.585-10.687-24.814-24.33-25.566z" mask="url(#b)"/>
    </g>
</svg>
