<?xml version="1.0" encoding="utf-8"?>
<!-- Generator: Adobe Illustrator 20.0.0, SVG Export Plug-In . SVG Version: 6.00 Build 0)  -->
<svg version="1.1" id="One_line_x2C__cmyk_x2C__positive"
	 xmlns="http://www.w3.org/2000/svg" xmlns:xlink="http://www.w3.org/1999/xlink" x="0px" y="0px" viewBox="0 0 103.5 33.5"
	 style="enable-background:new 0 0 103.5 33.5;" xml:space="preserve">
<style type="text/css">
	.st0{fill:#005AB4;}
	.st1{fill:#FEDF01;}
	.st2{fill:#FFFFFF;}
</style>
<g id="Layer_2_4_">
	<g>
		<g>
			<g>
				<g>
					<g>
						<g>
							<path class="st0" d="M25.5,29.4c0,1.1-0.5,1.7-1.3,2.1c-3.4,1.3-7.5,2-11.4,2c-3.9,0-8-0.7-11.4-2c-0.9-0.3-1.3-1-1.3-2.1V0
								h25.5V29.4z"/>
							<g>
								<g>
									<path class="st1" d="M6.8,17.9c-3.5-2.2-4.7-3.2-4.8-4.6c0-0.3,0-0.8,0.2-1.1L1.9,12c-0.3,0.4-0.4,1-0.4,1.5
										c0,0.8,0.3,1.5,0.6,2c0.5,0.8,1,1.2,2.3,2.2c1.4,1,2.3,2.3,2.9,3.5h0.2v-1.4c1.9,1.1,3.5,2.1,4.3,3.8h0.2
										C11.6,21.7,10.6,20.3,6.8,17.9z"/>
									<path class="st1" d="M23.1,23.6h-0.2c0-1.3-1.2-1.7-2.5-1.7h-4c0.1,0.6,0.2,1.4,0.1,2.1h-0.2c-0.4-3-2-4.4-4.4-6v1.3h-0.2
										c-0.6-1.4-2-2.7-3.3-3.6h0c-0.3-0.2-0.7-0.5-1.1-0.8v1.5H7.2c-0.5-1.4-1.5-2.5-3-3.8c-1.5-1.4-2.2-2.2-2.5-3.2
										c-0.2-0.6-0.3-1-0.3-1.7c0-1.1,0.6-2.1,1.3-2.5v0.5C2.4,6.3,2.2,6.9,2.2,7.5c0,0.6,0.1,1.2,0.4,1.7
										c0.9,1.6,3.8,3.7,5.6,4.9c5.7,3.8,6.9,4.5,7.8,6.6c0.1,0.2,0.2,0.5,0.3,0.9c0.8-0.1,3.8-0.6,4.4-0.7c0.1,0,0.3,0,0.4-0.1
										c0.5-0.3,0.9-0.7,1.3-1.3l-2.2-0.2c-0.1,0.3-0.2,0.5-0.3,0.6h-0.2c0.1-0.2,0.1-0.4,0.2-0.7l-0.6,0v-0.1l0.6-0.1
										c0.1-0.6,0.2-1.2,0.2-1.8l-2.8-0.2c0,0.3,0,0.6,0,0.8h-0.2c-0.1-0.3-0.1-0.6-0.1-0.8l-0.6,0V17l0.6,0
										c-0.1-0.7-0.1-1.4-0.1-2l-1.6-0.1c0.1,0.1,0.2,0.3,0.2,0.4c0.3,1,0.3,2.1,0.2,2.6h-0.2c0-0.6-0.2-1.4-0.4-1.8
										c-0.4-1.1-1.5-2-3.1-3.1v1.3h-0.2c-0.6-1.8-2-2.8-4-3.8C6,9.7,5.5,8.6,5.6,7l0.6,0.3c0.1,1.5,1.3,2.4,2.6,2.4
										c0.7,0,1.4-0.1,2.1-0.2c0.9-0.2,1.8-0.4,2.6-0.1V8.5h-0.6c-0.2,0.2-0.6,0.4-1.2,0.4c-0.7,0-2-0.4-2-1.8
										c0-1.2,1-1.4,1.9-1.4c0.5,0,1.2,0,1.5,0c0.2,0,0.3,0,0.4-0.1c0.1-0.1,0.1-0.2,0.1-0.3c0-0.2,0-0.3,0-0.6c0-0.1,0-0.9,0-0.9
										h-4v1.6L8.1,4.7V4.3h0.7V3.7H6.1V2.4H5.2c-0.5,0-1,0.3-1.1,1C4.1,4,4.4,4.6,5,4.6h0.1v0.8H5c-1.1,0-2-0.9-2-2
										c0-1.2,1-2.1,2.2-2.1h1.9v1.3h7.5c0,0,0,1.6,0,1.9c0,0.3,0,0.8,0,1c0,0.2-0.1,0.6-0.5,0.9c-0.2,0.2-0.6,0.2-1.1,0.2
										c-0.2,0-0.7,0-1.4,0c-0.9-0.1-1.1,0.3-1.1,0.6c0,0.1,0,0.1,0,0.2C11,7,11.5,6.8,12.2,7c1.1,0.4,1.5,0.4,2-0.1l0.1,0.1
										c-0.1,0.1-0.2,0.2-0.3,0.4h0.5v3l1.7-1H21c0,0,2,1.1,2.4,1.2c0.3,0.2,0.4,0.3,0.5,0.6c0,0.2,0,0.5-0.1,0.7
										c-0.1,0.1-0.6,1-0.9,1.5c0.8,0.9,1.4,2.1,1.4,3.5c0,1.2-0.5,2.8-2,4c0.7,0.2,1.1,0.6,1.4,1L23.1,23.6z M12.4,7.6
										c-0.7-0.1-1-0.1-1.4,0.3C11.2,8,11.4,8,11.7,8C12.1,8,12.3,7.8,12.4,7.6z M12,11.9l1.9-1.1c-0.4-0.2-0.8-0.3-1.3-0.3
										c-0.7,0-1.8,0.3-2.3,0.4C10.6,10.9,11.5,11.5,12,11.9z M20.5,12l0.3-0.4l-0.4-0.5l0.1-0.1l1.1,0.6l-0.2,0.8
										c0.2,0.1,0.4,0.2,0.6,0.4l0.7-1.2l-1.9-1h-4.2l-3.4,2.1c0.6,0.4,1.2,0.9,1.7,1.4c0.9-1.3,2.5-2.2,4.1-2.2
										C19.4,11.7,20,11.8,20.5,12z M20.1,16.8c0-0.6-0.1-1.2-0.2-1.7L17.7,15c-0.2,0.7-0.3,1.3-0.3,2L20.1,16.8z M20.9,15.1
										c0.1,0.6,0.1,1.1,0,1.6l2.2-0.1c-0.1-0.5-0.2-1-0.4-1.4L20.9,15.1z M19.8,14.4c-0.2-0.8-0.5-1.4-0.7-1.6
										c-0.1,0-0.2,0-0.3,0c-0.2,0-0.3,0-0.5,0c-0.2,0.6-0.4,1.1-0.6,1.7L19.8,14.4z M20.4,13c0.2,0.4,0.3,0.9,0.4,1.3l1.4-0.1
										C21.6,13.7,21.1,13.3,20.4,13z M22.9,18.8c0.2-0.4,0.3-0.8,0.3-1.2l-2.3-0.1c-0.1,0.6-0.3,1.2-0.5,1.7L22.9,18.8z
										 M17.2,13.1c-0.8,0.3-1.3,0.8-1.8,1.5l1.6-0.1C17,13.8,17.1,13.4,17.2,13.1z"/>
								</g>
								<g>
									<path class="st2" d="M14.3,27c0.6-0.1,1.3-0.6,1.3-1.4c0-0.7-0.3-1.4-2.3-1.4c-1.5,0-3.4,0-3.4,0v0.1
										c0.1,0,0.3,0.1,0.4,0.2c0.2,0.2,0.3,0.6,0.3,1v5.1c0,0,1.9,0,2.8,0c1.5,0,2.7-0.6,2.7-1.9C16,27.5,15.1,27,14.3,27z
										 M12.8,24.8c0.7,0,1.2,0.2,1.2,0.9c0,0.8-0.7,1-1.4,1c-0.4,0-0.6,0-0.6,0v-2C12,24.8,12.4,24.8,12.8,24.8z M12.9,29.9
										c-0.3,0-0.9,0-0.9,0v-2.6c0,0,0.5,0,0.9,0c1.2,0,1.6,0.4,1.6,1.2C14.5,29.5,13.9,29.9,12.9,29.9z"/>
									<path class="st2" d="M7.3,30.5h1.8l-2.3-3c0.9-0.3,1.6-0.8,1.6-1.7c0-1.1-0.7-1.7-2.4-1.7c-1.5,0-3.5,0-3.5,0v0.1
										c0.1,0,0.3,0.1,0.4,0.2c0.2,0.2,0.3,0.6,0.3,1.1c0,0,0,4.9,0,4.9h1.5v-2.8c0,0,0.3,0,0.5,0L7.3,30.5z M4.7,24.8
										c0,0,0.6,0,1,0C6.5,24.8,7,25,7,25.9c0,0.8-0.6,1.2-1.5,1.2c-0.4,0-0.8,0-0.8,0V24.8z"/>
									<path class="st2" d="M21.9,25c0.4,0.2,0.5,0.5,0.5,0.5c0,0,0.1,0,0.1,0l0.3-1.1c0,0-0.6-0.4-1.9-0.4c-2.1,0-3.6,1-3.6,3.3
										c0,2.6,1.8,3.2,3.5,3.2c1.5,0,2.1-0.5,2.1-0.5v-0.7c0,0-0.5,0.5-1.7,0.5c-0.9,0-2.3-0.4-2.4-2.5c0-1.9,0.8-2.6,2-2.6
										C21.4,24.8,21.7,24.9,21.9,25z"/>
								</g>
							</g>
						</g>
					</g>
				</g>
			</g>
		</g>
	</g>
</g>
<g>
	<g>
		<path class="st0" d="M27.6,33c-0.9,0-1.6-0.7-1.6-1.6c0-0.9,0.7-1.6,1.6-1.6c0.9,0,1.6,0.7,1.6,1.6C29.1,32.3,28.4,33,27.6,33z
			 M27.6,30.1c-0.7,0-1.2,0.6-1.2,1.3c0,0.7,0.5,1.3,1.2,1.3c0.7,0,1.2-0.6,1.2-1.3C28.8,30.7,28.2,30.1,27.6,30.1z M27.7,30.5
			c0.3,0,0.5,0.2,0.5,0.5c0,0.3-0.2,0.5-0.4,0.5c0,0,0.1,0,0.1,0.1c0.1,0.1,0.4,0.7,0.4,0.7h-0.4c-0.1-0.1-0.1-0.2-0.2-0.3
			c-0.2-0.3-0.2-0.4-0.3-0.4c0,0,0,0-0.1,0v0.7H27v-1.8H27.7z M27.3,31.3h0.1c0.2,0,0.2,0,0.3-0.1c0,0,0.1-0.1,0.1-0.2
			c0-0.1,0-0.2-0.1-0.2c0,0-0.1,0-0.2,0h-0.1V31.3z"/>
	</g>
</g>
<g>
	<rect x="38.2" class="st0" width="0.8" height="33.5"/>
</g>
<g>
	<path class="st0" d="M49.5,10.8c-0.3-0.6-0.5-0.8-0.8-1.4c-0.8-1.5-1.1-1.9-1.4-2c-0.1,0-0.2-0.1-0.3-0.1v3.5h-1.6V2.5h3.1
		c1.5,0,2.4,1,2.4,2.4c0,1.2-0.8,2.3-1.9,2.3c0.2,0.1,0.2,0.2,0.3,0.3c0.5,0.6,2,3.2,2,3.2H49.5z M48.6,3.9
		c-0.2-0.1-0.5-0.1-0.9-0.1H47v2.3h0.6c0.7,0,1-0.1,1.3-0.3c0.2-0.2,0.3-0.5,0.3-0.8C49.2,4.4,49,4.1,48.6,3.9z"/>
	<path class="st0" d="M56.8,10.1c-0.5,0.5-1.1,0.9-2,0.9c-1.7,0-2.8-1.2-2.8-3.2c0-1.9,1.1-3.2,2.8-3.2c0.9,0,1.6,0.3,2.1,0.9
		c0.5,0.6,0.7,1.2,0.7,2.2C57.6,8.8,57.3,9.5,56.8,10.1z M55.5,6.1c-0.2-0.2-0.4-0.3-0.7-0.3c-0.4,0-0.7,0.2-0.8,0.6
		c-0.1,0.3-0.2,0.8-0.2,1.4c0,0.7,0.1,1.2,0.2,1.5c0.1,0.3,0.5,0.5,0.8,0.5c0.7,0,1-0.6,1-2.1C55.8,6.9,55.7,6.3,55.5,6.1z"/>
	<path class="st0" d="M61.9,10.9c-0.4,1.2-0.7,1.7-1.2,2c-0.4,0.3-0.9,0.5-1.5,0.6l-0.6-1.1c0.3-0.1,0.8-0.2,1-0.4
		c0.2-0.1,0.3-0.3,0.5-0.5c0.2-0.3,0.2-0.4,0.3-0.7h-0.4c-0.2-0.6-0.5-1.5-0.6-1.7L58,4.8l1.6-0.2l1.1,3.6c0.1,0.4,0.3,1.2,0.3,1.3
		c0,0,0.1-0.7,0.2-1c0-0.2,0.1-0.6,0.2-0.9l0.9-2.9h1.7L61.9,10.9z"/>
	<path class="st0" d="M69.3,11.1c-0.4-0.2-0.7-0.4-0.9-0.7c-0.1,0.1-0.3,0.2-0.4,0.3c-0.3,0.2-0.7,0.3-1.2,0.3
		c-1.4,0-2.1-0.7-2.1-1.9c0-1.4,1-2.1,3-2.1c0.1,0,0.2,0,0.4,0V6.8c0-0.7-0.1-0.9-0.7-0.9c-0.5,0-1.1,0.3-1.8,0.7l-0.7-1.2
		c0.3-0.2,0.6-0.3,1-0.5c0.6-0.3,1.1-0.4,1.7-0.4c1,0,1.7,0.4,2,1.1c0.1,0.3,0.1,0.4,0.1,1.1l0,2.1c0,0.7,0,1,0.6,1.4L69.3,11.1z
		 M67.9,8.1c-1.1,0-1.5,0.2-1.5,0.9c0,0.5,0.3,0.8,0.7,0.8c0.3,0,0.6-0.2,0.8-0.4L67.9,8.1L67.9,8.1z"/>
	<path class="st0" d="M72.9,10.9c-0.7,0-1.2-0.3-1.4-0.8c-0.1-0.3-0.1-0.5-0.1-1.4V4.1c0-0.8,0-1.3-0.1-1.8l1.6-0.4
		C73,2.3,73,2.7,73,3.5v4.8c0,1.1,0,1.2,0.1,1.4c0.1,0.1,0.2,0.2,0.3,0.2c0.1,0,0.1,0,0.2,0l0.3,1C73.6,10.9,73.3,10.9,72.9,10.9z"
		/>
	<path class="st0" d="M81.5,10.8c-0.3,0-0.6,0-1.1,0h-2.6V2.5h2.8c1,0,1.5,0.2,2.1,0.6c0.5,0.4,0.7,0.9,0.7,1.5c0,0.6-0.2,1-0.6,1.4
		c-0.2,0.2-0.4,0.3-0.8,0.4c1,0.3,1.7,1,1.7,2.1C83.7,9.6,82.9,10.7,81.5,10.8z M81.1,4c-0.1-0.1-0.3-0.1-0.7-0.1h-1v1.9h1
		c0.4,0,0.6,0,0.7-0.1c0.2-0.1,0.4-0.5,0.4-0.9C81.6,4.5,81.4,4.1,81.1,4z M81.2,7.3c-0.2-0.1-0.3-0.1-0.6-0.1h-1v2.3h1.1
		c0.3,0,0.6,0,0.8-0.2c0.3-0.2,0.4-0.6,0.4-1C81.8,7.8,81.5,7.4,81.2,7.3z"/>
	<path class="st0" d="M89.3,11.1c-0.4-0.2-0.7-0.4-0.9-0.7c-0.1,0.1-0.3,0.2-0.4,0.3c-0.3,0.2-0.7,0.3-1.2,0.3
		c-1.4,0-2.1-0.7-2.1-1.9c0-1.4,1-2.1,3-2.1c0.1,0,0.2,0,0.4,0V6.8c0-0.7-0.1-0.9-0.7-0.9c-0.5,0-1.1,0.3-1.8,0.7l-0.7-1.2
		c0.3-0.2,0.6-0.3,1-0.5c0.6-0.3,1.1-0.4,1.7-0.4c1,0,1.7,0.4,2,1.1c0.1,0.3,0.1,0.4,0.1,1.1l0,2.1c0,0.7,0,1,0.6,1.4L89.3,11.1z
		 M88,8.1c-1.1,0-1.5,0.2-1.5,0.9c0,0.5,0.3,0.8,0.7,0.8c0.3,0,0.6-0.2,0.8-0.4L88,8.1L88,8.1z"/>
	<path class="st0" d="M94.6,10.8v-4c0-0.7-0.1-0.9-0.5-0.9c-0.3,0-0.7,0.2-1.1,0.6v4.3h-1.6V6.4c0-0.5-0.1-1-0.2-1.4l1.4-0.4
		c0.1,0.3,0.2,0.5,0.2,0.8C93,5.1,93.2,5,93.5,4.8c0.3-0.2,0.7-0.3,1.1-0.3c0.7,0,1.3,0.4,1.5,0.9c0.1,0.2,0.1,0.5,0.1,0.9v4.5H94.6
		z"/>
	<path class="st0" d="M97.9,10.8V3.9c0-0.5,0-1-0.1-1.6l1.6-0.4c0.1,0.5,0.1,1.2,0.1,2v6.9H97.9z M101.6,10.8l-2.1-3.5l1.6-2.7h1.9
		l-2,2.6l2.4,3.6H101.6z"/>
</g>
</svg>
