<?xml version="1.0" encoding="utf-8"?>
<!-- Generator: Adobe Illustrator 19.0.1, SVG Export Plug-In . SVG Version: 6.00 Build 0)  -->
<svg version="1.1" id="Layer_1" xmlns="http://www.w3.org/2000/svg" xmlns:xlink="http://www.w3.org/1999/xlink" x="0px" y="0px"
	 viewBox="-84.3 325.2 146.6 133.6" style="enable-background:new -84.3 325.2 146.6 133.6;" xml:space="preserve" preserveAspectRatio="xMidYMid meet">
<style type="text/css">
	.st0{fill:none;}
	.st1{fill:#A90533;}
	.st2{fill:#FFCD27;}
	.st3{fill:#FFFFFF;}
</style>
<rect id="backgroundrect" x="-334" y="592" class="st0" />
<g>
	<title>Layer 1</title>
	<path id="svg_1" class="st1" d="M-84.3,325.2v133.6H62.3V325.2H-84.3z"/>
	<g id="svg_2">
		<path id="svg_3" class="st2" d="M-77.5,418.6c0,6.1,0,9.5,0,14.5c23.1-13.1,67-32.6,133.3-38.1c0-1.2,0-1.9,0-3.1
			C7.1,394.6-38.9,403.7-77.5,418.6z"/>
	</g>
	<g id="svg_4">
		<path id="svg_5" class="st3" d="M-77.5,438.4c0,5.1,0,7.6,0,9.9c33-24.5,81.4-41.4,133.3-46.9c0-1.2,0-1.9,0-3
			C4.5,403.1-40.6,417-77.5,438.4z"/>
	</g>
	<g id="svg_6">
		<path id="svg_7" class="st2" d="M3.7,359.9c5-1.4,9.3-5,9.3-10.4c0-5.2-3.4-8.7-10.4-8.7c-3.3,0-7.5,0.3-10.5,0.3s-6.1,0-9.7-0.2
			h-0.2v0.2v2.2h0.2c3,0.2,3.2,0.8,3.2,5.7v28.8c0,2.6-0.3,3.8-2.7,4h-0.7v2.4c2.3-0.1,6.5-0.2,8.4-0.2c1.8,0,3.3,0.1,5.6,0.2
			c13.9,0.6,18.4-7.3,18.4-13.6C14.6,362.9,9,361,3.7,359.9L3.7,359.9z M5.9,371.8c0,6.7-3.7,9.4-9.3,9.4c-1.1,0-2.3-0.1-3-0.3
			c0-0.4,0-18.3,0-18.7c0.4,0,2.5,0,2.5,0C3.2,362.1,5.9,365.7,5.9,371.8 M-3.7,358.9c-1.4,0-2.2-0.1-2.7-0.2c0-0.4,0-9.7,0-9.7
			c0-1.8,0.1-3.5,0.2-4.6c0.5-0.2,2-0.4,3.1-0.4c5.3,0,7.6,2.2,7.6,7.1C4.6,357.9-0.5,358.8-3.7,358.9L-3.7,358.9z"/>
		<path id="svg_8" class="st2" d="M-39.8,378.4c-2.8,1.7-6,2.4-9.6,2.4c-9.8,0-14.7-7.6-14.7-19.6c0-10.6,4.7-17.5,13.6-17.5
			c3,0,5.5,1.1,7.2,2.6c0.3,1,0.6,6.1,0.6,6.1h2.5v-0.2c0-2.2,0.6-7.4,1.1-10V342h-0.2c-3.5-0.9-7.1-1.7-11.9-1.7
			C-62,340.3-73,346.8-73,362c0,15.9,9.7,22.7,21.3,22.7c3.2,0,7.4-0.5,10.9-2.4h0.1l1.7-3.2l-0.7-0.9L-39.8,378.4L-39.8,378.4z"/>
		<path id="svg_9" class="st2" d="M50.4,378.4c-2.8,1.7-6,2.4-9.6,2.4c-9.8,0-14.7-7.6-14.7-19.6c0-10.6,4.7-17.5,13.6-17.5
			c3,0,5.5,1.1,7.2,2.6c0.3,1,0.6,6.1,0.6,6.1H50v-0.2c0-2.2,0.6-7.4,1.1-10V342h-0.2c-3.5-0.9-7.1-1.7-11.9-1.7
			c-10.8,0-21.8,6.5-21.8,21.7c0,15.9,9.7,22.7,21.3,22.7c3.2,0,7.4-0.5,10.9-2.4h0.1l1.7-3.2l-0.7-0.9L50.4,378.4L50.4,378.4z"/>
		<path id="svg_10" class="st2" d="M-28.5,341c-2.5,0-5.4,0-7.8-0.2h-0.2v2.4h0.2c3.2,0.2,3.6,0.7,3.6,6.2v27.4c0,4.2-0.2,4.8-3.4,5
			h-0.2v2.4h0.2c2.4-0.2,5-0.2,7.5-0.2s4.8,0,7.5,0.2h0.2v-2.4h-0.2c-3.2-0.2-3.4-0.9-3.4-5v-27.4c0-5.6,0.2-6,3.4-6.2h0.2v-2.4
			h-0.2C-23.8,341-26,341-28.5,341L-28.5,341z"/>
	</g>
</g>
</svg>
