<svg id="LogoDesjardins" xmlns="http://www.w3.org/2000/svg" viewBox="0 0 143 30.84"><defs><style>.cls-1{fill:#008553;}</style></defs><title>Desjardins</title><path class="cls-1" d="M41.66,6.86H35.75V24h6c5.36,0,8.82-3.36,8.82-8.54S47,6.86,41.66,6.86Zm-.17,14.22H39.24V9.78h2.41a5.38,5.38,0,0,1,5.44,5.67A5.37,5.37,0,0,1,41.49,21.08Z"/><path class="cls-1" d="M0,7.71V23.13l13.35,7.71,13.36-7.71V7.71L13.35,0ZM23.09,9.8V21l-9.74,5.63L3.62,21V9.8l9.73-5.62Z"/><path class="cls-1" d="M118.9,8.39a1.79,1.79,0,1,1-1.79-1.79A1.79,1.79,0,0,1,118.9,8.39Zm-.26,3.86h-3.06V24h3.06Z"/><path class="cls-1" d="M70.25,16.72c-1.31-.5-1.71-.75-1.71-1.3s.42-.84,1.12-.84a4.19,4.19,0,0,1,2.81,1.32L74.25,14a6.3,6.3,0,0,0-4.55-2c-2.48,0-4.21,1.44-4.21,3.5,0,2.35,1.81,3.27,3.58,3.85l.6.19c1,.32,1.56.49,1.56,1.1,0,.34-.18.92-1.43.92a3.68,3.68,0,0,1-2.92-1.43l-1.8,1.91a5.92,5.92,0,0,0,4.68,2.11c2.8,0,4.54-1.36,4.54-3.55S72.77,17.69,70.25,16.72Z"/><path class="cls-1" d="M139,16.72c-1.31-.5-1.72-.75-1.72-1.3s.42-.84,1.13-.84a4.21,4.21,0,0,1,2.81,1.32L142.94,14a6.3,6.3,0,0,0-4.55-2c-2.48,0-4.21,1.44-4.21,3.5,0,2.35,1.82,3.27,3.59,3.85l.59.19c1,.32,1.56.49,1.56,1.1,0,.34-.18.92-1.43.92a3.68,3.68,0,0,1-2.92-1.43l-1.8,1.91a5.92,5.92,0,0,0,4.68,2.11c2.81,0,4.55-1.36,4.55-3.55S141.47,17.69,139,16.72Z"/><path class="cls-1" d="M79.77,8.39A1.79,1.79,0,1,1,78,6.6,1.79,1.79,0,0,1,79.77,8.39ZM76.13,28.54c2,0,3.38-1.38,3.38-4.15V12.25H76.44v12c0,1.06-.44,1.59-1.17,1.59a2.09,2.09,0,0,1-1-.28l-.51,2.55a5.78,5.78,0,0,0,2.39.41Z"/><path class="cls-1" d="M89.46,12.9A5.74,5.74,0,0,0,86.33,12a5.41,5.41,0,0,0-4.47,2l1.79,1.9a2.94,2.94,0,0,1,1.62-1.24,2.64,2.64,0,0,1,.81-.12,2.7,2.7,0,0,1,1,.19,1.74,1.74,0,0,1,1.14,1.65v.77a6.65,6.65,0,0,0-2.59-.45c-2.48,0-4.34,1.63-4.34,3.8a3.63,3.63,0,0,0,3.81,3.69,4.39,4.39,0,0,0,3-1.24h.13v1h2.91V16.31A3.81,3.81,0,0,0,89.46,12.9Zm-1.21,7.25c0,.6-1.25,1.55-2.73,1.55A1.39,1.39,0,0,1,84,20.35c0-.49.27-1.4,1.86-1.4a9.41,9.41,0,0,1,2.38.37Z"/><path class="cls-1" d="M96.86,13.62h-.08V12.24H93.66V24h3.12V18.7c0-2.12,1-3.56,3.7-3.56V12A4.26,4.26,0,0,0,96.86,13.62Z"/><path class="cls-1" d="M110,23h.14v1h2.91V6.85H110v6.36h-.12a4.47,4.47,0,0,0-3-1.17c-3.72,0-5.73,3.13-5.73,6.08a6,6,0,0,0,1.78,4.45,5.69,5.69,0,0,0,4,1.62A5.22,5.22,0,0,0,110,23Zm-3-1.53a3.13,3.13,0,0,1-3-3.31,3.13,3.13,0,0,1,3-3.31,3.19,3.19,0,0,1,3,3.31A3.18,3.18,0,0,1,107,21.42Z"/><path class="cls-1" d="M124.33,13.21h-.11v-1h-3.07V24h3.07V17.87c0-2.69,1.67-3.1,2.67-3.1,1.77,0,2.4,1.47,2.4,2.84V24h3.06V17.65c0-3.51-1.88-5.61-5-5.61A3.53,3.53,0,0,0,124.33,13.21Z"/><path class="cls-1" d="M63.81,18A5.62,5.62,0,0,0,58.05,12a5.75,5.75,0,0,0-5.82,6.06,5.81,5.81,0,0,0,6.05,6.09,6.27,6.27,0,0,0,5-2.11c-.22-.24-1.59-1.68-1.83-1.92a4,4,0,0,1-2.9,1.31,3,3,0,0,1-3.11-2.38h8.33A6.76,6.76,0,0,0,63.81,18Zm-8.39-1.08a2.69,2.69,0,0,1,2.74-2.18,2.57,2.57,0,0,1,2.63,2.18Z"/></svg>