<?xml version="1.0" encoding="utf-8"?>
<!-- Generator: Adobe Illustrator 19.0.1, SVG Export Plug-In . SVG Version: 6.00 Build 0)  -->
<svg version="1.1" id="Layer_1" xmlns="http://www.w3.org/2000/svg" xmlns:xlink="http://www.w3.org/1999/xlink" x="0px" y="0px"
	 viewBox="-141 367 274 59" style="enable-background:new -141 367 274 59;" xml:space="preserve">
<style type="text/css">
	.st0{fill:none;}
	.st1{fill:#FFFFFF;}
	.st2{fill:#EE3524;}
</style>
<rect id="backgroundrect" x="-155.5" y="303.4" class="st0" width="274.9" height="199.6"/>
<g>
	<title>Layer 1</title>
	<rect id="svg_1" x="-26.7" y="374.8" class="st1" width="45.6" height="45.6"/>
	<g id="svg_2">
		<g id="svg_3">
			<g id="svg_4">
				<path id="svg_5" d="M-102.8,399.3v16.3c0,2.1-1.8,3.9-4,3.9c-1.2,0-2.2,0-2.2,0v0.8h18.6v-0.9c0,0-1,0-2.2,0c-2.3,0-4-1.8-4-3.9
					v-16.6c0,0,0-17.1,0-19.7c0-2,1.8-3.9,4-3.9c1.2,0,2.2,0,2.2,0v-0.8H-109v0.8c0,0,1,0,2.2,0c2.4,0,4,1.9,4,3.9
					c0,2.6,0,17.7,0,17.7H-125c0,0,0-15.1,0-17.7c0-2,1.8-3.9,4-3.9c1.2,0,2.2,0,2.2,0v-0.8h-18.6v0.8c0,0,1,0,2.2,0
					c2.3,0,4,1.9,4,3.9c0,2.6,0,19.7,0,19.7v16.6c0,2-1.8,3.9-4,3.9c-1.2,0-2.2,0-2.2,0v0.8h18.6v-0.8c0,0-1,0-2.2,0
					c-2.3,0-4-1.8-4-3.9v-16.3L-102.8,399.3C-102.8,399.2-102.8,399.3-102.8,399.3z"/>
			</g>
			<g id="svg_6">
				<path id="svg_7" d="M-58.5,408.2c0.2,2.6-1.5,6.8-3.8,8.8c-2.3,2-5.4,3.8-9.6,3.8c-4.8,0-8.9-2.5-10.4-3.1
					c-0.9-0.4-2.1-0.3-2.8,0.1c-0.8,0.5-1.3,1.3-1.5,2.9h-0.7V405h0.7c0.7,4.9,2.9,7.7,4.3,9.3c2.3,2.6,6.7,4.1,10.8,3.5
					c3.3-0.6,7-4.1,6.6-8.6c-0.2-1.6-0.5-4-3.9-6.1c-2.1-1.4-5.1-3.3-7.9-5.2c-3.6-2.4-6.8-4.9-7.7-5.9c-1.2-1.3-2.7-3.3-2.7-6.5
					c0-2.7,1-5.7,3.2-7.8c2.2-2.1,5.1-3.6,9.3-3.6s7.4,2.3,8.5,2.7c1.1,0.5,2.3,0.4,3,0c0.7-0.4,1.1-0.9,1.3-2.4h0.7v15h-0.7
					c-0.7-4.9-2.7-8.5-4.2-9.9c-1.5-1.3-4.3-3.2-8.7-2.4c-4.1,0.8-6.1,2.6-6.5,5.9c-0.3,2.5,1,4,1.9,5c1.6,1.9,11.8,7.6,16.3,11.7
					C-60.6,401.6-58.8,404-58.5,408.2z"/>
			</g>
			<path id="svg_8" d="M-28.9,397c8.1,2.8,10.4,8.6,8.9,14.4c-1.8,7-9.6,8.4-12.1,8.7c-1.1,0.2-4,0.1-7,0.1c-5.2,0-11.7,0-16.9,0
				v-0.8c0,0,1.4,0,2.7,0c1.7,0,3.7-1.4,3.7-3.6c0,0,0-34.2,0-36.3s-2-3.7-3.7-3.7c-1.3,0-2.7,0-2.7,0v-0.8c4.6,0,11.4,0,16.2,0
				c3.9,0,6,0.4,7.3,0.7c2.3,0.5,9,2.4,10.6,8.7C-20.6,389-23,395.2-28.9,397z M-43.6,395.6c2.3,0.6,8.8,0.8,11.4-0.9
				c4-2.5,5.4-6.6,4.6-10.3c-0.5-2.2-1.6-4.1-3.6-5.6c-3.9-2.7-9.5-2.3-12.4-1.4C-43.6,377.5-43.6,395.6-43.6,395.6z M-43.6,417.7
				c3.2,0.9,9.1,1.7,13.4-1.3c5-3.6,6.1-12.4-1-16.9c-2.8-1.9-10-1.7-12.3-1.1L-43.6,417.7L-43.6,417.7z"/>
			<g id="svg_9">
				<path id="svg_10" d="M22.7,375.4l0.7,15.4h-0.9c-0.5-3.9-1.9-6.7-3.8-8.5c-0.6-0.5-1.5-1.6-3-2.4c-2.4-1.5-6-2.9-10.4-2.2
					c-6.5,1.1-9.8,5.5-11.5,9.5c-2.1,5.1-3.3,13.6,0.1,21c2.8,5.9,8.2,8.4,12.4,9c3.6,0.6,11.5,0.4,17.4-7.7l0.9,0.7
					c-4.7,6.6-10.8,10.8-18,10.7c-9-0.1-14.8-5.1-17.4-8.1c-2.7-3.1-4.9-9-4.9-14.2c0-4.6,1-9.7,2.6-12.7c2.8-5.2,8.8-10.3,16.7-11
					c5.8-0.6,9.7,0.6,13,2.4c1.6,0.9,2.5,1,3.5,0.7c0.9-0.4,1.6-1.1,1.6-2.6L22.7,375.4L22.7,375.4z"/>
			</g>
		</g>
		<g id="svg_11">
			<g id="svg_12">
				<g id="svg_13">
					<polygon id="svg_14" class="st2" points="38.4,397.4 61.2,420.2 61.2,374.6 					"/>
				</g>
				<g id="svg_15">
					<polygon id="svg_16" class="st2" points="61.2,420.2 106.7,420.2 83.9,397.4 					"/>
				</g>
				<g id="svg_17">
					<polygon id="svg_18" class="st2" points="83.9,397.4 106.7,374.6 61.2,374.6 					"/>
				</g>
				<g id="svg_19">
					<polygon id="svg_20" class="st2" points="106.7,374.6 106.7,420.2 129.5,397.4 					"/>
				</g>
			</g>
		</g>
	</g>
</g>
</svg>
