<?xml version="1.0" encoding="UTF-8"?>
<svg width="400px" height="88px" viewBox="0 0 400 88" version="1.1" xmlns="http://www.w3.org/2000/svg" xmlns:xlink="http://www.w3.org/1999/xlink">
    <!-- Generator: Sketch 59.1 (86144) - https://sketch.com -->
    <title>englishvector</title>
    <desc>Created with Sketch.</desc>
    <defs>
        <polygon id="path-1" points="0.0991735537 0.353719008 46.8528926 0.353719008 46.8528926 51.892562 0.0991735537 51.892562"></polygon>
    </defs>
    <g id="english" stroke="none" stroke-width="1" fill="none" fill-rule="evenodd">
        <g id="Manulife_Bank_cmyk" transform="translate(0.000000, 18.000000)">
            <g id="Group-5">
                <mask id="mask-2" fill="white">
                    <use xlink:href="#path-1"></use>
                </mask>
                <g id="Clip-2"></g>
                <polyline id="Fill-1" fill="#009F56" mask="url(#mask-2)" points="37.4826446 9.72396694 37.4826446 51.892562 46.8528926 42.522314 46.8528926 0.353719008 37.4826446 9.72396694"></polyline>
                <polyline id="Fill-3" fill="#009F56" mask="url(#mask-2)" points="18.7421488 51.892562 28.1107438 42.522314 28.1107438 0.353719008 18.7421488 9.72396694 18.7421488 51.892562"></polyline>
                <polyline id="Fill-4" fill="#009F56" mask="url(#mask-2)" points="0 51.892562 9.37190083 42.522314 9.37190083 0.353719008 0 9.72396694 0 51.892562"></polyline>
            </g>
            <path d="M233.638017,5.7107438 C231.557025,5.7107438 229.814876,7.40330579 229.814876,9.48429752 C229.814876,11.5669421 231.557025,13.3090909 233.638017,13.3090909 C235.671074,13.3090909 237.413223,11.5669421 237.413223,9.48429752 C237.413223,7.40330579 235.671074,5.7107438 233.638017,5.7107438 Z M218.008264,44.8644628 L223.961983,44.8644628 L223.961983,3.43636364 L218.008264,9.33884298 L218.008264,44.8644628 Z M230.540496,44.8644628 L236.735537,44.8644628 L236.735537,17.8595041 L230.540496,17.8595041 L230.540496,44.8644628 Z M249.945455,17.8595041 L249.945455,12.6330579 C249.945455,10.307438 251.494215,8.90578512 253.381818,8.90578512 C254.591736,8.90578512 255.849587,9.38842975 256.672727,9.87272727 L258.558678,5.22644628 C257.25124,4.54876033 255.07438,3.8231405 252.461157,3.8231405 C246.846281,3.8231405 243.991736,7.83966942 243.991736,12.292562 L243.991736,17.8595041 L240.365289,17.8595041 L240.365289,22.7950413 L243.991736,22.7950413 L243.991736,44.8644628 L249.945455,44.8644628 L249.945455,22.7950413 L255.606612,22.7950413 L257.01157,17.8595041 L249.945455,17.8595041 Z M269.157025,22.0198347 C272.786777,22.0198347 274.867769,25.1173554 274.867769,28.4099174 L262.864463,28.4099174 C262.961983,25.3107438 265.671074,22.0198347 269.157025,22.0198347 Z M269.590083,40.4115702 C265.864463,40.4115702 262.719008,37.3140496 262.671074,32.9586777 L281.110744,32.9586777 C281.4,21.9239669 276.366942,17.2297521 269.204959,17.2297521 C261.702479,17.2297521 256.523967,23.3272727 256.523967,31.3619835 C256.523967,39.6859504 261.31405,45.492562 269.01157,45.492562 C273.899174,45.492562 278.109091,42.9289256 280.287603,39.7338843 L276.560331,36.2512397 C275.300826,38.5256198 272.398347,40.4115702 269.590083,40.4115702 Z M176.986777,17.2297521 C173.500826,17.2297521 170.307438,18.9702479 168.178512,20.907438 L168.178512,17.8595041 L162.224793,17.8595041 L162.224793,44.8644628 L168.178512,44.8644628 L168.178512,25.4561983 C169.532231,24.1983471 172.436364,22.2628099 174.710744,22.2628099 C177.469421,22.2628099 178.583471,24.5371901 178.583471,27.1983471 L178.583471,44.8644628 L184.535537,44.8644628 L184.535537,25.6495868 C184.535537,19.0694215 180.180165,17.2297521 176.986777,17.2297521 Z M205.482645,36.8809917 C203.790083,38.7669421 201.609917,40.2661157 199.287603,40.2661157 C196.480992,40.2661157 195.12562,38.0892562 195.12562,34.9438017 L195.12562,17.8595041 L189.171901,17.8595041 L189.171901,36.8809917 C189.171901,43.6545455 194.013223,45.492562 197.497521,45.492562 C200.981818,45.492562 203.644628,43.5090909 205.289256,41.9619835 L205.289256,44.8644628 L211.436364,44.8644628 L211.436364,17.8595041 L205.482645,17.8595041 L205.482645,36.8809917 Z M111.857851,25.8214876 L111.758678,25.8214876 L100.723967,7.38181818 L93.707438,7.38181818 L93.707438,44.8644628 L100.193388,44.8644628 L100.193388,18.3190083 L100.287603,18.3190083 L111.710744,37.1950413 L123.084298,18.3190083 L123.180165,18.3190083 L123.180165,44.8644628 L129.71405,44.8644628 L129.71405,7.38181818 L122.842975,7.38181818 L111.857851,25.8214876 Z M150.952066,37.0247934 C149.500826,38.8644628 147.17686,40.7024793 144.370248,40.7024793 C141.998347,40.7024793 140.160331,39.2495868 140.160331,37.1206612 C140.160331,34.1190083 143.257851,32.8628099 146.790083,32.4247934 L150.854545,31.9421488 L150.952066,31.9421488 L150.952066,37.0247934 Z M147.127273,17.2297521 C142.33719,17.2297521 138.657851,19.1157025 136.578512,21.8264463 L139.965289,25.8446281 C141.031405,24.1504132 143.88595,22.0198347 146.839669,22.0198347 C149.403306,22.0198347 151.097521,23.3272727 151.097521,25.1173554 C151.097521,26.5702479 150.323967,27.7801653 148.145455,27.9735537 L145.919008,28.2165289 C140.208264,28.8446281 134.352066,31.1190083 134.352066,37.3636364 C134.352066,42.492562 138.272727,45.492562 143.014876,45.492562 C147.127273,45.492562 149.452893,43.5090909 150.904132,41.8165289 L150.904132,44.8644628 L156.904132,44.8644628 L156.904132,25.7471074 C156.904132,20.4231405 153.322314,17.2297521 147.127273,17.2297521 L147.127273,17.2297521 Z" id="Fill-6" fill="#1A1919"></path>
            <path d="M307.504132,42.6644628 L313.138843,42.6644628 C322.244628,42.6644628 324.026446,38.7619835 324.026446,34.6694215 C324.026446,30.1884298 321.761983,26.3338843 313.523967,26.3338843 L307.504132,26.3338843 L307.504132,42.6644628 Z M312.897521,24.1173554 C317.571901,24.1173554 323.158678,23.2495868 323.158678,17.0842975 C323.158678,10.9669421 318.004959,9.61818182 313.380165,9.61818182 L307.504132,9.61818182 L307.504132,24.1173554 L312.897521,24.1173554 Z M304.709091,44.8793388 L304.709091,7.40165289 L313.861157,7.40165289 C323.447934,7.40165289 325.953719,12.8446281 325.953719,17.0380165 C325.953719,21.0347107 323.639669,24.1669421 319.738843,25.1289256 C324.219835,26.4793388 326.819835,29.6578512 326.819835,34.4264463 C326.819835,38.8578512 324.892562,44.8793388 314.439669,44.8793388 L304.709091,44.8793388 L304.709091,44.8793388 Z" id="Fill-7" fill="#1A1919"></path>
            <path d="M346.619835,30.0446281 L342.042975,30.6694215 C338.094215,31.2 334.287603,33.1735537 334.287603,37.6066116 C334.287603,41.1702479 336.408264,43.3867769 339.732231,43.3867769 C342.236364,43.3867769 344.88595,41.122314 346.765289,38.7619835 L346.765289,30.0446281 L346.619835,30.0446281 Z M346.765289,44.8793388 L346.765289,41.507438 C344.500826,43.7239669 342.236364,45.6495868 339.104132,45.6495868 C335.347107,45.6495868 331.687603,42.8578512 331.687603,37.7008264 C331.687603,31.6330579 336.695868,29.2247934 342.523967,28.4033058 L343.87438,28.2115702 C345.656198,27.9719008 346.81157,27.3933884 346.81157,24.7917355 C346.81157,22.046281 344.740496,20.1206612 341.897521,20.1206612 C338.814876,20.1206612 336.408264,22.1421488 334.866116,24.4082645 L333.371901,22.431405 C335.444628,19.7834711 338.190083,17.9041322 342.332231,17.9041322 C346.571901,17.9041322 349.413223,20.1206612 349.413223,25.6578512 L349.413223,44.8793388 L346.765289,44.8793388 L346.765289,44.8793388 Z" id="Fill-8" fill="#1A1919"></path>
            <path d="M359.920661,44.8793388 L357.271074,44.8793388 L357.271074,18.6743802 L359.920661,18.6743802 L359.920661,21.4198347 C361.846281,19.6859504 364.158678,17.9041322 367.530579,17.9041322 C371.143802,17.9041322 374.034711,19.8297521 374.034711,26.0446281 L374.034711,44.8793388 L371.383471,44.8793388 L371.383471,25.3719008 C371.383471,23.1057851 370.036364,20.0231405 367.001653,20.0231405 C364.256198,20.0231405 361.413223,22.4809917 359.920661,23.877686 L359.920661,44.8793388" id="Fill-9" fill="#1A1919"></path>
            <path d="M391.42314,27.2 L399.998347,44.8793388 L396.915702,44.8793388 L389.593388,29.3206612 L384.824793,34.8132231 L384.824793,44.8793388 L382.175207,44.8793388 L382.175207,6.43801653 L384.824793,4.51239669 L384.824793,25.0330579 C384.824793,27.2975207 384.727273,29.9454545 384.679339,31.8247934 L384.727273,31.8247934 C385.642975,30.6694215 386.654545,29.2727273 387.761983,27.922314 L395.664463,18.6743802 L398.890909,18.6743802 L391.42314,27.2" id="Fill-10" fill="#1A1919"></path>
        </g>
    </g>
</svg>