<?xml version="1.0" encoding="utf-8"?>
<!-- Generator: Adobe Illustrator 16.0.0, SVG Export Plug-In . SVG Version: 6.00 Build 0)  -->
<!DOCTYPE svg PUBLIC "-//W3C//DTD SVG 1.1//EN" "http://www.w3.org/Graphics/SVG/1.1/DTD/svg11.dtd">
<svg version="1.1" id="Layer_1" xmlns="http://www.w3.org/2000/svg" xmlns:xlink="http://www.w3.org/1999/xlink" x="0px" y="0px"
	 width="824.896px" height="291.929px" viewBox="107.874 360.405 824.896 291.929"
	 enable-background="new 107.874 360.405 824.896 291.929" xml:space="preserve">
<path fill="#2A2A2A" d="M264.048,548.065c0,4.505-2.122,6.629-5.818,6.629h-20.12c-3.714,0-6.093-1.859-6.093-6.362V437.004
	c0-4.247,1.06-6.629,5.296-7.158l21.438-6.401c2.918-0.271,5.297,0.525,5.297,4.769V548.065z"/>
<path fill="#2A2A2A" d="M754.614,548.103c0,4.505-2.115,6.629-5.824,6.629h-20.113c-3.715,0-6.094-1.852-6.094-6.366V437.038
	c0-4.238,1.061-6.626,5.297-7.157l21.438-6.407c2.912-0.263,5.297,0.531,5.297,4.771V548.103z"/>
<path fill="#2A2A2A" d="M819.927,548.103c0,4.505-2.113,6.629-5.818,6.629h-20.119c-3.703,0-6.088-1.852-6.088-6.366V437.038
	c0-4.238,1.062-6.626,5.297-7.157l21.439-6.407c2.91-0.263,5.289,0.531,5.289,4.771V548.103z"/>
<path fill="#2A2A2A" d="M155.78,557.896c-13.925,0-29.192-4.021-41.238-9.39c-2.957-1.337-4.028-3.218-2.957-6.166l4.825-14.752
	c1.072-3.222,3.221-4.024,6.424-2.68c12.59,5.36,24.367,8.309,33.742,8.309c11.794,0,19.822-5.36,19.822-14.212
	c0-7.513-5.088-11.531-16.068-15.827l-21.157-8.048c-15.267-5.628-27.587-17.432-27.587-35.67c0-26.285,24.642-38.354,48.481-38.354
	c12.842,0,25.702,2.146,38.825,8.04c3.479,1.612,3.479,3.223,2.682,6.441l-4.562,14.483c-1.066,3.221-3.742,3.489-6.418,2.418
	c-9.106-3.493-20.361-6.438-28.929-6.438c-11.243,0-16.871,6.167-16.871,12.336c0,5.902,2.951,9.661,13.123,13.678l24.108,9.925
	c14.184,5.906,25.438,16.895,25.438,34.332C207.465,544.486,183.092,557.896,155.78,557.896"/>
<path fill="#2A2A2A" d="M689.364,547.974c0,4.559-2.139,6.702-5.887,6.702h-20.354c-3.748,0-6.161-1.875-6.161-6.431V376.577
	c0-4.291,1.078-6.703,5.354-7.239l21.696-6.441c2.945-0.266,5.353,0.536,5.353,4.829V547.974z"/>
<path fill="#EA1E2F" d="M738.54,408.864c-8.83,0-18.213-5.899-18.213-16.629c0-10.729,8.844-17.166,18.213-17.166
	c9.105,0,17.938,6.165,17.938,16.898C756.478,402.429,747.378,408.864,738.54,408.864"/>
<path fill="#EA1E2F" d="M803.331,408.864c-8.842,0-18.211-5.899-18.211-16.629c0-10.729,8.83-17.166,18.211-17.166
	c9.107,0,17.938,6.165,17.938,16.898C821.269,402.429,812.163,408.864,803.331,408.864"/>
<path fill="#2A2A2A" d="M478.507,441.218c-5.633-10.459-17.938-20.111-37.491-20.111c-16.332,0-33.741,5.896-45.793,17.43
	c-6.155-10.189-17.673-17.43-34.006-17.43c-13.42,0-27.318,5.234-38.129,14.254v-12.691c0-4.247-2.384-5.043-5.296-4.78
	l-21.443,6.407c-4.242,0.53-5.296,2.917-5.296,7.16v7.781v108.736v0.339c0,4.514,2.384,6.363,6.093,6.363h0.875h18.74h0.5
	c0.089,0,0.174-0.018,0.269-0.018c0.067-0.006,0.118-0.012,0.179-0.017c0.443-0.021,0.864-0.07,1.251-0.166
	c0.028-0.003,0.056-0.012,0.09-0.024c0.353-0.079,0.679-0.187,0.987-0.326c0.045-0.025,0.084-0.044,0.129-0.067
	c1.869-0.915,2.923-2.872,2.923-6.008v-85.479c8.5-7.271,19.917-13.575,30.09-13.575c16.343,0,19.284,11.27,19.284,25.48v73.497
	c0,4.827,2.143,6.702,6.962,6.702h17.674c4.55,0,6.424-1.875,6.424-6.702v-44.796c0-3.756-0.533-39.691-1.072-42.11
	c8.304-6.7,20.086-12.071,30.264-12.071c16.333,0,20.086,10.997,20.086,25.48v73.497c0,4.827,2.143,6.702,6.957,6.702h18.751
	c4.556,0,6.418-1.875,6.418-6.702V480.11C484.925,462.944,483.596,451.146,478.507,441.218"/>
<path fill="#2A2A2A" d="M618.21,437.464c-8.836-9.656-21.152-16.357-38.825-16.357c-13.516,0-27.356,7.246-35.453,15.421v-13.387
	c0-4.245-2.384-5.039-5.29-4.771l-21.455,6.398c-3.002,0.376-4.399,1.722-4.96,3.981c-0.208,0.496-0.326,6.734-0.326,7.753v0.956
	v111.329v56.854c0,4.559,2.149,6.971,6.425,6.971h18.75c4.551,0,6.957-1.607,6.957-6.971v-60.354
	c7.771,8.052,20.081,12.607,32.406,12.607c17.411,0,31.33-6.968,41.238-18.236c11.244-13.146,17.404-31.652,17.404-52.036
	C635.081,468.848,629.729,450.071,618.21,437.464 M591.706,521.954c-4.556,5.634-12.052,9.925-21.428,9.925
	c-10.172,0-20.887-5.897-26.246-13.146v-58.468c5.359-6.705,17.674-13.143,27.593-13.143c9.37,0,16.866,3.751,21.949,10.999
	c5.363,7.505,7.771,18.504,7.771,31.111C601.345,502.379,598.399,513.639,591.706,521.954"/>
<path fill="#2A2A2A" d="M627.513,607.254l-0.438,3.751c-0.129,1.125-0.814,1.312-2.121,1.312h-15.67v11.312h14.418
	c1.19,0,1.566,0.502,1.566,1.38v3.562c0,1.062-0.449,1.5-1.498,1.5h-14.486v17.439c0,1.129-0.438,1.566-1.499,1.566h-4.864
	c-1.246,0-1.684-0.312-1.684-1.686v-40.012c0-1.006,0.438-1.563,1.432-1.563h23.536
	C627.384,605.815,627.636,606.314,627.513,607.254"/>
<path fill="#2A2A2A" d="M652.497,609.754c0,0.996-0.438,1.307-1.303,1.307h-3.568v32.758h3.372c0.875,0,1.313,0.57,1.313,1.32v2.684
	c0,0.752-0.314,1.254-1.117,1.254h-14.861c-0.814,0-1.252-0.502-1.252-1.188v-2.816c0-0.875,0.376-1.254,1.252-1.254h3.31v-32.758
	h-3.618c-0.876,0-1.252-0.435-1.252-1.248v-2.746c0-0.693,0.376-1.251,1.117-1.251h15.305c0.865,0,1.303,0.558,1.303,1.192V609.754z
	"/>
<path fill="#2A2A2A" d="M697.757,647.391c0,1.373-0.566,1.686-1.504,1.686h-4.18c-0.932,0-1.744-0.438-2.367-1.318l-20.35-27.879
	h-0.123v27.566c0,1.193-0.567,1.631-1.628,1.631h-4.488c-1.188,0-1.683-0.312-1.683-1.566v-40.008c0-1.311,0.555-1.687,1.683-1.687
	h4.057c0.999,0,1.492,0.312,2.115,1.192l20.54,28.25h0.129v-27.814c0-1.193,0.551-1.628,1.615-1.628h4.68
	c1.312,0,1.504,0.689,1.504,1.687V647.391z"/>
<path fill="#2A2A2A" d="M710.981,649.076h-5.561c-0.623,0-0.869-0.312-0.869-0.816c0-0.188,0-0.438,0.117-0.686l15.232-40.508
	c0.309-0.752,0.746-1.251,1.684-1.251h4.992c0.934,0,1.506,0.435,1.752,1.127l15.289,40.321c0.123,0.311,0.123,0.559,0.123,0.809
	c0,0.625-0.309,1.004-1.123,1.004h-5.553c-1.309,0-1.746-0.502-2.121-1.502l-3.242-9.189h-15.795l-3.248,9.373
	C712.411,648.574,711.974,649.076,710.981,649.076 M729.581,632.324l-4.439-13.194c-0.561-1.751-0.932-3.062-1.238-4.062h-0.131
	c-0.318,1.063-0.689,2.376-1.312,4.126l-4.432,13.131H729.581z"/>
<path fill="#2A2A2A" d="M786.925,647.391c0,1.373-0.566,1.686-1.508,1.686h-4.17c-0.941,0-1.75-0.438-2.383-1.318l-20.34-27.879
	h-0.123v27.566c0,1.193-0.566,1.631-1.621,1.631h-4.5c-1.184,0-1.684-0.312-1.684-1.566v-40.008c0-1.311,0.561-1.687,1.684-1.687
	h4.062c0.992,0,1.492,0.312,2.127,1.192l20.529,28.25h0.123v-27.814c0-1.193,0.561-1.628,1.627-1.628h4.668
	c1.318,0,1.508,0.689,1.508,1.687V647.391z"/>
<path fill="#2A2A2A" d="M827.821,647.264c-4.129,1.688-7.859,2.562-12.422,2.562c-13.168,0-19.598-9.312-19.598-22.191
	c0-12.815,7.676-22.633,20.221-22.633c4.309,0,8.174,0.878,11.732,2.628c0.752,0.374,1.004,0.686,1.004,1.064
	c0,0.246-0.068,0.493-0.191,0.808l-1.43,3.943c-0.191,0.561-0.5,0.809-0.881,0.809c-0.186,0-0.438-0.126-0.686-0.248
	c-3.125-1.628-5.924-2.252-9.051-2.252c-8.674,0-12.039,8.003-12.039,15.568c0,9.621,4.488,15.748,12.164,15.748
	c3.002,0,6.053-0.689,8.988-1.998c0.314-0.123,0.566-0.256,0.746-0.256c0.443,0,0.758,0.32,1.004,0.945l1.24,3.377
	c0.135,0.311,0.189,0.621,0.189,0.877C828.813,646.576,828.567,646.947,827.821,647.264"/>
<path fill="#2A2A2A" d="M853.534,609.754c0,0.996-0.438,1.307-1.307,1.307h-3.562v32.758h3.373c0.875,0,1.312,0.57,1.312,1.32v2.684
	c0,0.752-0.314,1.254-1.123,1.254H837.37c-0.807,0-1.25-0.502-1.25-1.188v-2.816c0-0.875,0.381-1.254,1.25-1.254h3.311v-32.758
	h-3.619c-0.875,0-1.25-0.435-1.25-1.248v-2.746c0-0.693,0.375-1.251,1.115-1.251h15.301c0.869,0,1.307,0.558,1.307,1.192V609.754z"
	/>
<path fill="#2A2A2A" d="M866.396,649.076h-5.551c-0.623,0-0.875-0.312-0.875-0.816c0-0.188,0-0.438,0.123-0.686l15.227-40.508
	c0.314-0.752,0.748-1.251,1.689-1.251h4.994c0.932,0,1.492,0.435,1.744,1.127l15.289,40.321c0.123,0.311,0.123,0.559,0.123,0.809
	c0,0.625-0.307,1.004-1.121,1.004h-5.555c-1.312,0-1.756-0.502-2.115-1.502l-3.248-9.189h-15.793l-3.25,9.373
	C867.831,648.574,867.394,649.076,866.396,649.076 M884.999,632.324l-4.438-13.194c-0.561-1.751-0.932-3.062-1.246-4.062h-0.129
	c-0.309,1.063-0.686,2.376-1.312,4.126l-4.422,13.131H884.999z"/>
<path fill="#2A2A2A" d="M931.358,647.574c0,1.123-0.561,1.502-1.502,1.502h-22.213c-1.123,0-1.623-0.379-1.623-1.75v-39.947
	c0-1.006,0.5-1.563,1.494-1.563h4.998c1.117,0,1.555,0.435,1.555,1.628v34.938h15.789c1.064,0,1.502,0.504,1.502,1.438V647.574z"/>
</svg>
