<?xml version="1.0" encoding="utf-8"?>
<!-- Generator: Adobe Illustrator 12.0.0, SVG Export Plug-In . SVG Version: 6.00 Build 51448)  -->
<!DOCTYPE svg PUBLIC "-//W3C//DTD SVG 1.1//EN" "http://www.w3.org/Graphics/SVG/1.1/DTD/svg11.dtd" [
	<!ENTITY ns_svg "http://www.w3.org/2000/svg">
	<!ENTITY ns_xlink "http://www.w3.org/1999/xlink">
]>
<svg  version="1.1" id="Layer_1" xmlns="&ns_svg;" xmlns:xlink="&ns_xlink;" width="188.633" height="169.086"
	 viewBox="0 0 188.633 169.086" overflow="visible" enable-background="new 0 0 188.633 169.086" xml:space="preserve">
<g>
	<polyline fill="#FFFFFF" points="79.356,19.851 84.118,25.477 81.022,10.867 88.558,15.359 94.136,4.782 99.77,15.327 
		107.249,10.939 104.282,25.413 104.951,24.633 108.988,19.851 111.814,25.211 120.507,23.038 117.247,31.732 119.711,31.732 
		124.13,19.778 113.046,22.604 109.423,15.866 108.409,17.097 110.51,6.375 100.656,12.244 94.136,0 87.615,12.171 77.69,6.303 
		80.009,17.17 78.85,15.866 75.228,22.604 64.143,19.778 68.562,31.732 71.097,31.732 67.765,23.038 76.458,25.211 	"/>
	<path fill="#FFFFFF" d="M1.547,44.048l4.926,7.39l73.463,104.254l6.665,9.49c3.84,5.071,11.23,5.217,15.07,0.073l6.593-9.201
		l73.68-104.906l4.928-6.955c4.202-6.303,0.361-14.491-7.535-14.779h-13.113H19.659H9.298C1.909,29.415-2.438,37.601,1.547,44.048"
		/>
	<path fill="none" stroke="#FFFFFF" stroke-width="0.0714" d="M1.547,44.048l4.926,7.39l73.463,104.254l6.665,9.49
		c3.84,5.071,11.23,5.217,15.07,0.073l6.593-9.201l73.68-104.906l4.928-6.955c4.202-6.303,0.361-14.491-7.535-14.779h-13.113H19.659
		H9.298C1.909,29.415-2.438,37.601,1.547,44.048z"/>
	<path d="M3.72,43.034l4.636,7.101l73.608,104.471l6.375,9.057c2.899,4.129,8.694,4.129,11.592,0.072l6.231-8.84l74.114-105.412
		l4.637-6.666c3.405-4.999,0-11.012-5.65-11.085h-12.461H19.369H9.444C3.792,31.661,0.17,37.818,3.72,43.034"/>
	<path fill="none" stroke="#000000" stroke-width="0.071" d="M3.72,43.034l4.636,7.101l73.608,104.471l6.375,9.057
		c2.899,4.129,8.694,4.129,11.592,0.072l6.231-8.84l74.114-105.412l4.637-6.666c3.405-4.999,0-11.012-5.65-11.085h-12.461H19.369
		H9.444C3.792,31.661,0.17,37.818,3.72,43.034z"/>
	<path fill="#FFFFFF" d="M5.604,41.513l4.565,6.882l74.042,105.051l6.23,8.911c2.173,2.681,5.434,2.754,7.534,0l6.159-8.693
		l74.477-105.92l4.564-6.521c1.956-2.897,0-7.1-3.768-7.1h-12.243H19.079H9.371C4.951,34.196,3.647,38.759,5.604,41.513"/>
	<path fill="none" stroke="#FFFFFF" stroke-width="0.0714" d="M5.604,41.513l4.565,6.882l74.042,105.051l6.23,8.911
		c2.173,2.681,5.434,2.754,7.534,0l6.159-8.693l74.477-105.92l4.564-6.521c1.956-2.897,0-7.1-3.768-7.1h-12.243H19.079H9.371
		C4.951,34.196,3.647,38.759,5.604,41.513z"/>
	<path fill="#ED1B2D" d="M7.561,40.064l4.346,6.521l74.695,105.992l5.869,8.404c0.869,1.16,2.68,1.231,3.549,0l5.868-8.186
		l74.985-106.79l4.347-6.159c0.724-1.16,0-3.333-1.812-3.333h-11.664H18.5H9.298C7.561,36.514,6.618,38.615,7.561,40.064"/>
	<path fill="none" stroke="#ED1B2D" stroke-width="0.0714" d="M7.561,40.064l4.346,6.521l74.695,105.992l5.869,8.404
		c0.869,1.16,2.68,1.231,3.549,0l5.868-8.186l74.985-106.79l4.347-6.159c0.724-1.16,0-3.333-1.812-3.333h-11.664H18.5H9.298
		C7.561,36.514,6.618,38.615,7.561,40.064z"/>
	<path fill="#FFFFFF" d="M146.009,68.608v0.023C146.012,68.675,146.009,68.672,146.009,68.608"/>
	<path fill="#FFFFFF" d="M143.04,65.784h-3.043c-0.943,0-2.175,0.652-2.247,1.883c-0.071-0.362,0.072-1.087-0.724-1.883h-4.058
		c0.073,0,0.869,0.29,0.869,1.665v5.073v12.461h3.912V72.521v-2.681c0,0,0.072-0.871,0.725-0.871h2.753
		c0.218,0,0.942,0.146,0.942,1.016v2.536v12.461h3.839V72.521v-3.89C145.994,68.331,145.764,65.784,143.04,65.784"/>
	<path fill="#FFFFFF" d="M127.97,65.784h-5.724c-1.739,0-3.26,1.449-3.26,3.186v3.552v12.461h3.839v-5.58h4.42v5.58h3.841V72.521
		V68.97C131.086,67.16,129.926,65.784,127.97,65.784 M127.245,76.144h-4.42v-3.623v-2.826c0-0.726,0.87-0.726,0.652-0.726h2.971
		c0.145,0,0.797,0.073,0.797,0.726v2.826V76.144z"/>
	<polyline fill="#FFFFFF" points="112.031,72.521 112.031,84.982 116.016,84.982 116.016,72.521 116.016,65.784 112.031,65.784 	"/>
	<path fill="#FFFFFF" d="M106.887,94.98v3.188v10.07c0,1.667,1.449,3.116,3.116,3.116h5.724v-3.188h-4.13
		c-0.507,0-0.797-0.29-0.797-0.652v-4.419h4.781v-3.261H110.8v-1.666v-2.029c0-0.289,0.145-0.796,0.797-0.796h4.13v-3.188h-5.579
		C108.409,92.154,106.887,93.387,106.887,94.98"/>
	<path fill="#FFFFFF" d="M109.351,81.722v-9.201v-3.84c0-1.883-1.666-2.897-3.479-2.897h-4.854H97.18v6.738v12.461h8.766
		C107.685,84.982,109.351,83.533,109.351,81.722 M105.438,80.853c0,0.363-0.217,0.87-0.869,0.87h-3.478v-9.201V68.97h3.478
		c0.869,0,0.869,0.509,0.869,0.871v2.681V80.853z"/>
	<path fill="#FFFFFF" d="M104.135,109.615v-4.203c0-1.158-0.943-2.101-2.536-2.245c1.593-0.217,2.536-1.521,2.536-3.115v-1.884
		v-2.971c0-1.883-1.667-3.043-3.479-3.043h-8.621v6.014v13.187h3.768v-7.028l3.478,0.072c0.362,0,0.941,0.362,0.941,1.087v3.984
		c0,1.522,0.508,1.885,0.58,1.885h4.274C105.222,111.354,104.206,111.136,104.135,109.615 M100.222,100.196
		c0,0.362-0.361,0.87-0.797,0.87h-3.622v-2.898v-2.825h3.478c0.362,0,0.941,0.507,0.941,0.869v1.956V100.196z"/>
	<path fill="#FFFFFF" d="M94.426,84.982V72.521V68.97c0-1.81-1.087-3.186-3.115-3.186h-5.652c-1.811,0-3.333,1.449-3.333,3.186
		v3.552v12.461h3.913v-5.58h4.347v5.58 M86.24,76.144v-3.623v-2.826c0-0.726,0.796-0.726,0.652-0.726h2.97
		c0.145,0,0.725,0.073,0.725,0.726v2.826v3.623H86.24z"/>
	<polyline fill="#FFFFFF" points="85.153,98.168 85.153,111.354 89.065,111.354 89.065,98.168 89.065,92.154 85.153,92.154 	"/>
	<polyline fill="#FFFFFF" points="71.967,95.343 75.879,95.343 75.879,98.168 75.879,111.354 79.719,111.354 79.719,98.168 
		79.719,95.343 83.559,95.343 83.559,92.154 71.967,92.154 	"/>
	<path fill="#FFFFFF" d="M75.59,69.985v2.536v12.461h3.912V72.521v-3.913c0,0.508,0.073-2.825-3.043-2.825h-3.043
		c-0.869,0-2.173,0.652-2.246,1.883c0-0.362,0.073-1.087-0.725-1.883H66.46c0.073,0,0.87,0.29,0.87,1.665v5.073v12.461h3.839V72.521
		v-2.681c0,0,0.073-0.871,0.725-0.871h2.753C74.865,68.97,75.59,69.116,75.59,69.985"/>
	<path fill="#FFFFFF" d="M61.389,65.784h-5.651c-1.81,0-3.331,1.449-3.331,3.186v3.552v12.461h3.911v-5.58h4.347v5.58h3.912V72.521
		V68.97C64.577,67.16,63.346,65.784,61.389,65.784 M60.666,76.144h-4.347v-3.623v-2.826c0-0.726,0.796-0.726,0.653-0.726h2.969
		c0.146,0,0.725,0.073,0.725,0.726v2.826V76.144z"/>
	<path fill="#FFFFFF" d="M41.611,68.608v3.913v9.345c0,1.667,1.376,3.116,3.043,3.116h5.724v-3.26h-4.13
		c-0.217,0-0.725-0.579-0.725-0.579v-8.622v-2.826c0-0.217,0.146-0.726,0.797-0.726h4.057v-3.186h-5.578
		C43.133,65.784,41.611,66.942,41.611,68.608"/>
	<polyline points="116.74,33.109 117.32,31.515 120.507,23.038 111.814,25.211 108.988,19.851 104.951,24.633 104.279,25.43 
		104.282,25.413 107.249,10.939 99.77,15.327 99.715,15.359 94.136,4.854 88.558,15.359 81.022,10.867 84.139,25.502 84.118,25.477 
		79.356,19.851 76.458,25.211 67.765,23.038 71.025,31.515 71.605,33.109 67.837,36.804 80.009,46.439 76.024,53.54 90.731,51.076 
		90.731,55.931 97.542,55.931 97.542,51.076 112.248,53.467 108.336,46.439 120.435,36.876 	"/>
	<path d="M108.026,46.377l0.161-0.127l11.887-9.396l-3.507-3.576l-0.105-0.108l0.052-0.143c0,0,0.579-1.594,0.58-1.596l3.026-8.046
		l-8.248,2.06l-0.184,0.046l-0.089-0.168l-2.657-5.043c-0.839,0.994-3.807,4.508-3.807,4.508l-0.672,0.797
		c0,0-0.611,0.724-0.608,0.708l0.19-0.928l2.858-13.943c-1.619,0.95-7.013,4.113-7.012,4.113l-0.055,0.032l-0.219,0.128
		l-0.117-0.223L94.136,5.369l-5.365,10.103l-0.12,0.224l-0.217-0.13l-7.061-4.208l3.001,14.094l0.196,0.925l-0.616-0.718
		c0,0-0.021-0.023-0.022-0.025L79.4,20.277l-2.729,5.049l-0.088,0.165L76.4,25.445l-8.244-2.059c0.66,1.714,3.094,8.044,3.096,8.047
		l0.579,1.594l0.053,0.146l-0.111,0.109l-3.572,3.503l11.957,9.465l0.162,0.128l-0.102,0.179l-3.738,6.661l14.21-2.38l0.282-0.047
		v0.285v4.613H97.3v-4.613v-0.284l0.28,0.045l14.216,2.312l-3.671-6.591"/>
	<path fill="#009D57" d="M96.527,48.831c-0.797-0.146-1.015,0.073-1.015,0.797v4.273h-2.68v-4.273c0-0.653-0.146-0.943-0.942-0.797
		l-11.954,1.955l1.883-3.332c0.507-0.798,0.507-1.957-0.362-2.464l-10.504-8.259l2.1-2.246c0.652-0.434,0.797-1.376,0.362-2.246
		l-0.29-0.725l-2.029-5.579l5.145,1.377c0.869,0.29,1.594-0.29,1.956-0.943l1.521-2.897l5.434,6.448
		c1.16,1.159,2.028,0.58,1.739-1.159L83.993,15.07l3.984,2.318c0.797,0.434,1.739,0.361,2.102-0.435l4.057-7.752l4.057,7.752
		c0.361,0.724,1.305,0.941,2.101,0.506l4.058-2.462l-2.971,13.837c-0.289,1.739,0.652,2.246,1.811,1.087l5.362-6.375l1.594,2.97
		c0.362,0.652,1.086,1.014,1.956,0.725l5.144-1.231l-2.101,5.506l-0.362,0.869c-0.362,0.942-0.146,1.667,0.435,2.101l2.102,2.246
		l-10.505,8.259c-0.87,0.507-0.87,1.594-0.362,2.464l1.883,3.332"/>
	<path fill="none" stroke="#009D57" stroke-width="0.4826" d="M96.527,48.831c-0.797-0.146-1.015,0.073-1.015,0.797v4.273h-2.68
		v-4.273c0-0.653-0.146-0.943-0.942-0.797l-11.954,1.955l1.883-3.332c0.507-0.798,0.507-1.957-0.362-2.464l-10.504-8.259l2.1-2.246
		c0.652-0.434,0.797-1.376,0.362-2.246l-0.29-0.725l-2.029-5.579l5.145,1.377c0.869,0.29,1.594-0.29,1.956-0.943l1.521-2.897
		l5.434,6.448c1.16,1.159,2.028,0.58,1.739-1.159L83.993,15.07l3.984,2.318c0.797,0.434,1.739,0.361,2.102-0.435l4.057-7.752
		l4.057,7.752c0.361,0.724,1.305,0.941,2.101,0.506l4.058-2.462l-2.971,13.837c-0.289,1.739,0.652,2.246,1.811,1.087l5.362-6.375
		l1.594,2.97c0.362,0.652,1.086,1.014,1.956,0.725l5.144-1.231l-2.101,5.506l-0.362,0.869c-0.362,0.942-0.146,1.667,0.435,2.101
		l2.102,2.246l-10.505,8.259c-0.87,0.507-0.87,1.594-0.362,2.464l1.883,3.332L96.527,48.831z"/>
</g>
</svg>
