<?xml version="1.0" encoding="utf-8"?>
<!-- Generator: Adobe Illustrator 16.0.4, SVG Export Plug-In . SVG Version: 6.00 Build 0)  -->
<!DOCTYPE svg PUBLIC "-//W3C//DTD SVG 1.1//EN" "http://www.w3.org/Graphics/SVG/1.1/DTD/svg11.dtd">
<svg version="1.1" id="Layer_1" xmlns="http://www.w3.org/2000/svg" xmlns:xlink="http://www.w3.org/1999/xlink" x="0px" y="0px"
	 width="256px" height="65.517px" viewBox="0 0 256 65.517" enable-background="new 0 0 256 65.517" xml:space="preserve">
<g>
	<rect y="-0.23" fill="none" width="256" height="65.517"/>
	<g>
		<path fill="#1C1601" d="M57.898,23.215h1.295v6.788h-1.295V23.215z"/>
		<path fill="#1C1601" d="M61.721,25.702v4.301h-1.295v-6.779l1.215-0.009l2.895,4.3v-4.291h1.295v6.779h-1.202L61.721,25.702z"/>
		<path fill="#1C1601" d="M69.462,30.003h-1.295v-5.437c0-0.038-0.019-0.057-0.057-0.057h-1.445v-1.295h4.317v1.295H69.52
			c-0.038,0-0.058,0.019-0.058,0.057V30.003z"/>
		<path fill="#1C1601" d="M75.547,27.24h-2.378c-0.038,0-0.058,0.02-0.058,0.058v1.353c0,0.038,0.02,0.058,0.058,0.058h2.378v1.295
			h-3.73v-6.788h3.73v1.295h-2.378c-0.038,0-0.058,0.019-0.058,0.057v1.326c0,0.035,0.02,0.053,0.058,0.053h2.378V27.24z"/>
		<path fill="#1C1601" d="M79.933,30.003l-1.4-2.607c-0.021-0.035-0.049-0.054-0.084-0.054h-0.341c-0.038,0-0.058,0.02-0.058,0.058
			v2.604h-1.295v-6.788h2.126c0.581,0,1.058,0.188,1.432,0.565c0.41,0.406,0.615,0.931,0.615,1.573c0,0.58-0.202,1.065-0.605,1.454
			c-0.13,0.124-0.272,0.226-0.429,0.305c-0.029,0.015-0.045,0.028-0.045,0.04c0,0.006,0.005,0.015,0.014,0.026l1.556,2.824H79.933z
			 M78.881,24.51h-0.773c-0.038,0-0.058,0.019-0.058,0.057v1.561c0,0.038,0.02,0.058,0.058,0.058h0.773
			c0.257,0,0.455-0.099,0.597-0.296c0.109-0.153,0.164-0.335,0.164-0.544c0-0.257-0.08-0.466-0.239-0.628
			C79.264,24.578,79.091,24.51,78.881,24.51z"/>
		<path fill="#1C1601" d="M83.354,30.003h-1.396l2.704-6.788h0.99l2.723,6.788h-1.384l-0.539-1.246
			c-0.009-0.016-0.022-0.022-0.04-0.022h-2.515c-0.018,0-0.03,0.009-0.039,0.026L83.354,30.003z M85.144,25.525l-0.777,1.958
			c-0.003,0.009-0.005,0.017-0.005,0.022c0,0.018,0.014,0.026,0.04,0.026h1.516c0.024,0,0.036-0.009,0.036-0.026
			c0-0.006-0.002-0.014-0.005-0.022l-0.773-1.958c-0.003-0.009-0.007-0.013-0.013-0.013C85.153,25.513,85.146,25.517,85.144,25.525z
			"/>
		<path fill="#1C1601" d="M93.422,24.916c-0.416-0.321-0.868-0.481-1.357-0.481c-0.397,0-0.782,0.111-1.153,0.336
			c-0.324,0.194-0.577,0.456-0.76,0.786c-0.18,0.324-0.27,0.669-0.27,1.034c0,0.684,0.28,1.243,0.84,1.68
			c0.436,0.342,0.893,0.513,1.37,0.513c0.471,0,0.914-0.161,1.33-0.482l0.795,1.03c-0.139,0.13-0.305,0.246-0.499,0.349
			c-0.492,0.263-1.04,0.394-1.645,0.394c-0.972,0-1.797-0.337-2.475-1.012c-0.675-0.678-1.012-1.495-1.012-2.453
			c0-0.957,0.337-1.774,1.012-2.452c0.678-0.675,1.503-1.013,2.475-1.013c0.822,0,1.537,0.248,2.144,0.742L93.422,24.916z"/>
		<path fill="#1C1601" d="M98.457,28.199c0.183,0.504,0.562,0.756,1.136,0.756c0.336,0,0.739-0.122,1.211-0.366l0.495,0.879
			c-0.577,0.407-1.176,0.61-1.795,0.61c-0.707,0-1.281-0.222-1.724-0.663c-0.441-0.442-0.662-0.999-0.662-1.671
			c0-0.66,0.223-1.214,0.667-1.661c0.442-0.445,0.985-0.668,1.631-0.668c0.643,0,1.149,0.208,1.521,0.623
			c0.356,0.398,0.534,0.936,0.534,1.613c0,0.15-0.009,0.318-0.026,0.504h-2.961C98.466,28.155,98.457,28.17,98.457,28.199z
			 M98.475,27.249h1.71c0.027,0,0.04-0.007,0.04-0.021c0-0.191-0.066-0.356-0.199-0.495c-0.158-0.162-0.377-0.243-0.653-0.243
			c-0.298,0-0.544,0.119-0.738,0.358c-0.13,0.156-0.194,0.281-0.194,0.375C98.439,27.24,98.451,27.249,98.475,27.249z"/>
		<path fill="#1C1601" d="M102.273,26.887h2.868v1.03h-2.868V26.887z"/>
		<path fill="#1C1601" d="M108.31,30.003h-1.295v-5.437c0-0.038-0.019-0.057-0.057-0.057h-1.445v-1.295h4.317v1.295h-1.463
			c-0.038,0-0.058,0.019-0.058,0.057V30.003z"/>
		<path fill="#1C1601" d="M110.114,30.003v-4.525h1.153v0.198c0.215-0.18,0.507-0.27,0.875-0.27h0.633v1.237h-0.642
			c-0.218,0-0.4,0.069-0.548,0.208c-0.153,0.139-0.232,0.311-0.238,0.518v2.634H110.114z"/>
		<path fill="#1C1601" d="M116.621,25.747v-0.27h1.123v4.525h-1.123v-0.261c-0.374,0.221-0.777,0.331-1.211,0.331
			c-0.645,0-1.197-0.229-1.657-0.689c-0.459-0.459-0.689-1.008-0.689-1.644c0-0.637,0.23-1.185,0.689-1.645
			c0.46-0.459,1.01-0.689,1.648-0.689C115.823,25.406,116.229,25.52,116.621,25.747z M115.389,26.617
			c-0.304,0-0.563,0.107-0.778,0.323c-0.215,0.215-0.322,0.481-0.322,0.8s0.107,0.585,0.322,0.8s0.479,0.322,0.791,0.322
			c0.31,0,0.572-0.107,0.787-0.322s0.322-0.481,0.322-0.8c0-0.315-0.107-0.582-0.322-0.8
			C115.977,26.725,115.709,26.617,115.389,26.617z"/>
		<path fill="#1C1601" d="M119.687,25.649c0.262-0.162,0.568-0.243,0.919-0.243c0.666,0,1.176,0.197,1.529,0.593
			c0.31,0.345,0.464,0.812,0.464,1.405v2.599h-1.229v-2.581c0-0.218-0.077-0.404-0.229-0.557c-0.153-0.153-0.341-0.23-0.562-0.23
			c-0.209,0-0.389,0.069-0.539,0.208c-0.162,0.15-0.243,0.325-0.243,0.526v2.634h-1.233v-4.525h1.123V25.649z"/>
		<path fill="#1C1601" d="M123.184,29.097l0.854-0.517c0.153,0.212,0.299,0.317,0.438,0.317c0.059,0,0.112-0.021,0.159-0.062
			c0.07-0.056,0.105-0.125,0.105-0.208c0-0.161-0.163-0.322-0.49-0.481c-0.241-0.118-0.427-0.232-0.557-0.345
			c-0.304-0.265-0.455-0.612-0.455-1.043c0-0.415,0.123-0.745,0.371-0.99c0.241-0.241,0.559-0.362,0.95-0.362
			c0.56,0,0.982,0.335,1.269,1.004l-0.84,0.441c-0.074-0.186-0.19-0.278-0.35-0.278c-0.07,0-0.132,0.024-0.184,0.073
			c-0.051,0.048-0.077,0.106-0.077,0.174c0,0.147,0.165,0.31,0.495,0.486c0.248,0.133,0.436,0.26,0.565,0.38
			c0.289,0.269,0.434,0.612,0.434,1.03c0,0.392-0.131,0.718-0.394,0.977c-0.25,0.254-0.557,0.38-0.919,0.38
			C123.972,30.073,123.514,29.748,123.184,29.097z"/>
		<path fill="#1C1601" d="M127.007,25.478v-0.434c0-0.43,0.125-0.771,0.375-1.021c0.251-0.251,0.593-0.376,1.025-0.376h0.809v1.069
			h-0.481c-0.333,0-0.499,0.173-0.499,0.518v0.243h1.312v1.104h-1.312v3.421h-1.229v-3.421h-0.734v-1.104H127.007z"/>
		<path fill="#1C1601" d="M131.198,28.199c0.183,0.504,0.562,0.756,1.136,0.756c0.336,0,0.739-0.122,1.211-0.366l0.495,0.879
			c-0.577,0.407-1.176,0.61-1.794,0.61c-0.707,0-1.282-0.222-1.724-0.663c-0.442-0.442-0.663-0.999-0.663-1.671
			c0-0.66,0.223-1.214,0.667-1.661c0.442-0.445,0.986-0.668,1.631-0.668c0.643,0,1.149,0.208,1.521,0.623
			c0.356,0.398,0.535,0.936,0.535,1.613c0,0.15-0.009,0.318-0.026,0.504h-2.961C131.207,28.155,131.198,28.17,131.198,28.199z
			 M131.216,27.249h1.711c0.026,0,0.039-0.007,0.039-0.021c0-0.191-0.065-0.356-0.198-0.495c-0.159-0.162-0.377-0.243-0.654-0.243
			c-0.297,0-0.544,0.119-0.738,0.358c-0.129,0.156-0.194,0.281-0.194,0.375C131.181,27.24,131.192,27.249,131.216,27.249z"/>
		<path fill="#1C1601" d="M134.844,30.003v-4.525h1.153v0.198c0.215-0.18,0.507-0.27,0.875-0.27h0.632v1.237h-0.641
			c-0.218,0-0.401,0.069-0.548,0.208c-0.154,0.139-0.233,0.311-0.239,0.518v2.634H134.844z"/>
		<path fill="#1C1601" d="M138.312,23.318c0.219,0,0.406,0.079,0.563,0.237s0.236,0.349,0.236,0.571s-0.079,0.413-0.236,0.57
			c-0.157,0.158-0.347,0.237-0.571,0.237c-0.22,0-0.41-0.079-0.569-0.239c-0.159-0.158-0.238-0.349-0.238-0.568
			c0-0.219,0.079-0.408,0.238-0.569C137.893,23.398,138.085,23.318,138.312,23.318z M138.299,23.441c-0.186,0-0.345,0.066-0.479,0.2
			c-0.133,0.134-0.199,0.296-0.199,0.485s0.066,0.352,0.199,0.485c0.135,0.133,0.296,0.2,0.485,0.2c0.193,0,0.359-0.069,0.497-0.207
			c0.134-0.134,0.201-0.293,0.201-0.479s-0.067-0.345-0.201-0.479C138.665,23.51,138.497,23.441,138.299,23.441z M138.634,24.6
			h-0.188c-0.12-0.205-0.194-0.328-0.222-0.367c-0.003,0-0.005,0.002-0.006,0.005V24.6h-0.163v-0.942h0.283
			c0.083,0,0.15,0.026,0.2,0.077c0.051,0.051,0.076,0.12,0.076,0.207c0,0.081-0.022,0.147-0.065,0.197
			c-0.016,0.019-0.04,0.035-0.076,0.052c-0.03,0.015-0.045,0.021-0.046,0.021l-0.021-0.001c-0.002,0-0.002,0.002-0.002,0.007
			L138.634,24.6z M138.218,23.81v0.265c0,0.006,0.003,0.008,0.008,0.008h0.106c0.038,0,0.067-0.016,0.089-0.046
			c0.02-0.027,0.028-0.06,0.028-0.098c0-0.037-0.01-0.068-0.03-0.095c-0.021-0.027-0.051-0.041-0.087-0.041h-0.106
			C138.221,23.803,138.218,23.805,138.218,23.81z"/>
	</g>
	<g>
		<path fill="#1C1601" d="M62.053,35.212h-1.561c-0.05,0-0.075,0.024-0.075,0.075v5.652h-1.061v-5.652
			c0-0.051-0.025-0.075-0.075-0.075h-1.547v-1.061h4.318V35.212z"/>
		<path fill="#1C1601" d="M63.725,36.613c0.32-0.18,0.653-0.27,0.998-0.27c0.593,0,1.077,0.188,1.454,0.561
			c0.356,0.356,0.535,0.812,0.535,1.366v2.669h-1.003v-2.607c0-0.271-0.101-0.506-0.301-0.703c-0.197-0.194-0.435-0.291-0.712-0.291
			c-0.312,0-0.561,0.1-0.746,0.301c-0.156,0.17-0.234,0.396-0.234,0.676v2.625h-0.995v-6.337h1.004V36.613z"/>
		<path fill="#1C1601" d="M68.478,39.065c0.183,0.663,0.63,0.994,1.343,0.994c0.422,0,0.852-0.123,1.291-0.371l0.406,0.752
			c-0.551,0.38-1.131,0.569-1.741,0.569c-0.681,0-1.246-0.224-1.697-0.671c-0.447-0.451-0.672-1.008-0.672-1.671
			c0-0.66,0.225-1.214,0.672-1.662c0.431-0.436,0.964-0.653,1.6-0.653c0.587,0,1.067,0.188,1.441,0.561
			c0.415,0.413,0.623,0.963,0.623,1.648c0,0.077-0.006,0.235-0.018,0.478h-3.222C68.483,39.039,68.475,39.048,68.478,39.065z
			 M68.495,38.262h2.191c0.012,0,0.018-0.021,0.018-0.062c0-0.18-0.07-0.356-0.212-0.53c-0.212-0.262-0.495-0.394-0.849-0.394
			c-0.406,0-0.737,0.171-0.994,0.513c-0.118,0.157-0.177,0.302-0.177,0.438C68.473,38.249,68.479,38.262,68.495,38.262z"/>
		<path fill="#1C1601" d="M76.625,37.607c-0.127-0.198-0.271-0.296-0.434-0.296c-0.112,0-0.201,0.035-0.27,0.105
			c-0.067,0.064-0.102,0.146-0.102,0.243c0,0.162,0.182,0.347,0.544,0.553c0.309,0.179,0.537,0.349,0.685,0.508
			c0.25,0.271,0.376,0.599,0.376,0.981c0,0.371-0.124,0.683-0.371,0.933c-0.254,0.25-0.566,0.375-0.938,0.375
			c-0.589,0-1.014-0.276-1.272-0.83l0.733-0.474c0.165,0.224,0.33,0.336,0.495,0.336c0.112,0,0.208-0.037,0.287-0.114
			c0.077-0.08,0.115-0.171,0.115-0.274c0-0.168-0.109-0.336-0.327-0.504c-0.089-0.068-0.266-0.177-0.53-0.327
			c-0.498-0.28-0.747-0.664-0.747-1.153c0-0.383,0.127-0.701,0.38-0.954c0.248-0.248,0.553-0.371,0.915-0.371
			c0.51,0,0.901,0.262,1.176,0.786L76.625,37.607z"/>
		<path fill="#1C1601" d="M81.646,36.949c0.409-0.404,0.908-0.605,1.498-0.605c0.601,0,1.087,0.186,1.458,0.557
			c0.359,0.356,0.539,0.812,0.539,1.37v2.669h-0.994v-2.607c0-0.269-0.099-0.501-0.296-0.698c-0.2-0.197-0.435-0.296-0.703-0.296
			c-0.244,0-0.464,0.078-0.658,0.234c-0.229,0.186-0.345,0.415-0.345,0.689v2.678H81.15v-2.607c0-0.271-0.101-0.506-0.301-0.703
			c-0.197-0.194-0.436-0.291-0.716-0.291c-0.31,0-0.556,0.095-0.738,0.282c-0.159,0.171-0.238,0.391-0.238,0.659v2.66h-0.994v-4.525
			h0.949v0.243c0.304-0.21,0.651-0.313,1.043-0.313C80.742,36.344,81.238,36.545,81.646,36.949z"/>
		<path fill="#1C1601" d="M89.562,36.812v-0.397h0.941v4.525h-0.941v-0.389c-0.427,0.306-0.89,0.459-1.388,0.459
			c-0.646,0-1.196-0.228-1.653-0.685c-0.456-0.457-0.685-1.006-0.685-1.648c0-0.642,0.229-1.191,0.685-1.648
			c0.457-0.457,1.007-0.685,1.648-0.685C88.662,36.344,89.127,36.499,89.562,36.812z M88.157,37.338
			c-0.365,0-0.678,0.13-0.938,0.389c-0.259,0.259-0.389,0.576-0.389,0.95c0,0.377,0.13,0.694,0.389,0.95
			c0.26,0.259,0.576,0.389,0.95,0.389c0.375,0,0.691-0.13,0.95-0.389c0.26-0.256,0.39-0.573,0.39-0.95c0-0.374-0.13-0.691-0.39-0.95
			C88.864,37.468,88.543,37.338,88.157,37.338z"/>
		<path fill="#1C1601" d="M92.357,36.675c0.263-0.212,0.634-0.322,1.114-0.331h0.45v1.012h-0.415
			c-0.728,0.009-1.099,0.319-1.113,0.933v2.651h-0.995v-4.525h0.959V36.675z"/>
		<path fill="#1C1601" d="M95.636,36.449v-1.348h1.003v1.348h1.171v0.906h-1.171v3.584h-1.003v-3.584h-1.185v-0.906H95.636z"/>
		<path fill="#1C1601" d="M98.013,39.998l0.871-0.137l0.114,1.728l-0.495,0.049L98.013,39.998z"/>
		<path fill="#1C1601" d="M103.96,37.607c-0.127-0.198-0.271-0.296-0.434-0.296c-0.111,0-0.201,0.035-0.27,0.105
			c-0.067,0.064-0.102,0.146-0.102,0.243c0,0.162,0.182,0.347,0.544,0.553c0.31,0.179,0.537,0.349,0.685,0.508
			c0.251,0.271,0.376,0.599,0.376,0.981c0,0.371-0.124,0.683-0.371,0.933c-0.254,0.25-0.566,0.375-0.938,0.375
			c-0.589,0-1.014-0.276-1.272-0.83l0.733-0.474c0.165,0.224,0.33,0.336,0.495,0.336c0.112,0,0.208-0.037,0.287-0.114
			c0.077-0.08,0.115-0.171,0.115-0.274c0-0.168-0.109-0.336-0.327-0.504c-0.089-0.068-0.265-0.177-0.53-0.327
			c-0.498-0.28-0.747-0.664-0.747-1.153c0-0.383,0.127-0.701,0.38-0.954c0.248-0.248,0.553-0.371,0.915-0.371
			c0.51,0,0.901,0.262,1.176,0.786L103.96,37.607z"/>
		<path fill="#1C1601" d="M106.344,39.065c0.183,0.663,0.63,0.994,1.343,0.994c0.422,0,0.852-0.123,1.291-0.371l0.406,0.752
			c-0.551,0.38-1.131,0.569-1.741,0.569c-0.681,0-1.246-0.224-1.697-0.671c-0.447-0.451-0.672-1.008-0.672-1.671
			c0-0.66,0.225-1.214,0.672-1.662c0.431-0.436,0.964-0.653,1.601-0.653c0.586,0,1.066,0.188,1.44,0.561
			c0.415,0.413,0.623,0.963,0.623,1.648c0,0.077-0.006,0.235-0.018,0.478h-3.222C106.35,39.039,106.341,39.048,106.344,39.065z
			 M106.361,38.262h2.191c0.012,0,0.018-0.021,0.018-0.062c0-0.18-0.07-0.356-0.212-0.53c-0.212-0.262-0.495-0.394-0.849-0.394
			c-0.406,0-0.737,0.171-0.994,0.513c-0.117,0.157-0.177,0.302-0.177,0.438C106.339,38.249,106.347,38.262,106.361,38.262z"/>
		<path fill="#1C1601" d="M113.664,37.899c-0.315-0.368-0.689-0.553-1.123-0.553c-0.377,0-0.695,0.13-0.954,0.389
			c-0.257,0.257-0.385,0.568-0.385,0.937c0,0.374,0.131,0.691,0.394,0.95c0.256,0.257,0.57,0.385,0.941,0.385
			c0.495,0,0.881-0.228,1.157-0.681l0.902,0.402c-0.451,0.854-1.141,1.281-2.068,1.281c-0.654,0-1.208-0.228-1.662-0.685
			c-0.457-0.453-0.685-1.006-0.685-1.657c0-0.64,0.226-1.187,0.676-1.64c0.457-0.457,1.01-0.685,1.657-0.685
			c0.742,0,1.381,0.328,1.914,0.985L113.664,37.899z"/>
		<path fill="#1C1601" d="M118.188,40.688c-0.298,0.215-0.649,0.322-1.056,0.322c-0.59,0-1.071-0.184-1.445-0.552
			c-0.359-0.36-0.539-0.821-0.539-1.384v-2.651h0.994v2.59c0,0.269,0.097,0.499,0.292,0.693c0.2,0.201,0.441,0.301,0.725,0.301
			c0.318,0,0.568-0.1,0.751-0.301c0.15-0.158,0.226-0.372,0.226-0.641v-2.643h1.003v4.517h-0.95V40.688z"/>
		<path fill="#1C1601" d="M120.997,36.675c0.263-0.212,0.634-0.322,1.114-0.331h0.45v1.012h-0.415
			c-0.728,0.009-1.099,0.319-1.114,0.933v2.651h-0.994v-4.525h0.959V36.675z"/>
		<path fill="#1C1601" d="M124.022,39.065c0.183,0.663,0.631,0.994,1.344,0.994c0.422,0,0.852-0.123,1.29-0.371l0.407,0.752
			c-0.551,0.38-1.132,0.569-1.741,0.569c-0.681,0-1.246-0.224-1.697-0.671c-0.448-0.451-0.672-1.008-0.672-1.671
			c0-0.66,0.224-1.214,0.672-1.662c0.431-0.436,0.963-0.653,1.6-0.653c0.586,0,1.066,0.188,1.44,0.561
			c0.416,0.413,0.624,0.963,0.624,1.648c0,0.077-0.007,0.235-0.019,0.478h-3.222C124.028,39.039,124.02,39.048,124.022,39.065z
			 M124.04,38.262h2.192c0.012,0,0.018-0.021,0.018-0.062c0-0.18-0.07-0.356-0.212-0.53c-0.212-0.262-0.495-0.394-0.849-0.394
			c-0.406,0-0.738,0.171-0.994,0.513c-0.118,0.157-0.177,0.302-0.177,0.438C124.019,38.249,124.025,38.262,124.04,38.262z"/>
		<path fill="#1C1601" d="M134.677,39.361l0.826-2.947h1.061l-1.388,4.525h-0.849l-0.941-2.807l-0.932,2.807h-0.854l-1.374-4.525
			h1.052l0.844,2.987l0.893-2.979h0.778L134.677,39.361z"/>
		<path fill="#1C1601" d="M140.535,36.812v-0.397h0.941v4.525h-0.941v-0.389c-0.428,0.306-0.89,0.459-1.388,0.459
			c-0.646,0-1.196-0.228-1.653-0.685c-0.456-0.457-0.685-1.006-0.685-1.648c0-0.642,0.229-1.191,0.685-1.648
			c0.457-0.457,1.007-0.685,1.648-0.685C139.635,36.344,140.099,36.499,140.535,36.812z M139.13,37.338
			c-0.366,0-0.678,0.13-0.938,0.389c-0.259,0.259-0.389,0.576-0.389,0.95c0,0.377,0.13,0.694,0.389,0.95
			c0.26,0.259,0.576,0.389,0.95,0.389c0.375,0,0.69-0.13,0.95-0.389c0.26-0.256,0.389-0.573,0.389-0.95
			c0-0.374-0.129-0.691-0.389-0.95C139.837,37.468,139.516,37.338,139.13,37.338z"/>
		<path fill="#1C1601" d="M143.948,39.393l0.95-2.987h1.047l-2.214,6.399h-1.061l0.76-2.121l-1.493-4.27h1.078L143.948,39.393z"/>
		<path fill="#1C1601" d="M149.992,36.449v-1.348h1.003v1.348h1.171v0.906h-1.171v3.584h-1.003v-3.584h-1.185v-0.906H149.992z"/>
		<path fill="#1C1601" d="M154.896,36.344c0.631,0,1.173,0.227,1.627,0.68c0.454,0.454,0.681,1.002,0.681,1.645
			c0,0.654-0.229,1.209-0.686,1.666c-0.454,0.451-1.002,0.676-1.644,0.676c-0.651,0-1.204-0.228-1.657-0.685
			c-0.457-0.453-0.686-1.005-0.686-1.653c0-0.639,0.226-1.187,0.677-1.644C153.662,36.571,154.225,36.344,154.896,36.344z
			 M154.866,37.347c-0.366,0-0.678,0.13-0.938,0.389c-0.256,0.257-0.385,0.567-0.385,0.933c0,0.377,0.132,0.695,0.394,0.954
			c0.257,0.257,0.569,0.385,0.938,0.385c0.371,0,0.685-0.128,0.941-0.385c0.262-0.259,0.393-0.576,0.393-0.95
			c0-0.364-0.128-0.678-0.384-0.937C155.568,37.477,155.249,37.347,154.866,37.347z"/>
		<path fill="#1C1601" d="M162.116,37.607c-0.127-0.198-0.271-0.296-0.433-0.296c-0.112,0-0.202,0.035-0.271,0.105
			c-0.067,0.064-0.102,0.146-0.102,0.243c0,0.162,0.182,0.347,0.544,0.553c0.31,0.179,0.538,0.349,0.685,0.508
			c0.251,0.271,0.376,0.599,0.376,0.981c0,0.371-0.124,0.683-0.371,0.933c-0.253,0.25-0.565,0.375-0.937,0.375
			c-0.59,0-1.014-0.276-1.273-0.83l0.734-0.474c0.164,0.224,0.33,0.336,0.494,0.336c0.112,0,0.208-0.037,0.287-0.114
			c0.077-0.08,0.115-0.171,0.115-0.274c0-0.168-0.109-0.336-0.327-0.504c-0.088-0.068-0.265-0.177-0.53-0.327
			c-0.498-0.28-0.747-0.664-0.747-1.153c0-0.383,0.127-0.701,0.381-0.954c0.247-0.248,0.552-0.371,0.914-0.371
			c0.51,0,0.902,0.262,1.176,0.786L162.116,37.607z"/>
		<path fill="#1C1601" d="M164.5,39.065c0.182,0.663,0.63,0.994,1.343,0.994c0.422,0,0.852-0.123,1.291-0.371l0.406,0.752
			c-0.551,0.38-1.131,0.569-1.741,0.569c-0.681,0-1.246-0.224-1.697-0.671c-0.447-0.451-0.672-1.008-0.672-1.671
			c0-0.66,0.225-1.214,0.672-1.662c0.431-0.436,0.964-0.653,1.601-0.653c0.586,0,1.065,0.188,1.44,0.561
			c0.415,0.413,0.623,0.963,0.623,1.648c0,0.077-0.006,0.235-0.018,0.478h-3.222C164.505,39.039,164.496,39.048,164.5,39.065z
			 M164.518,38.262h2.191c0.013,0,0.018-0.021,0.018-0.062c0-0.18-0.07-0.356-0.212-0.53c-0.212-0.262-0.495-0.394-0.849-0.394
			c-0.406,0-0.737,0.171-0.994,0.513c-0.118,0.157-0.177,0.302-0.177,0.438C164.495,38.249,164.503,38.262,164.518,38.262z"/>
		<path fill="#1C1601" d="M169.451,36.657c0.31-0.21,0.662-0.313,1.057-0.313c0.595,0,1.081,0.188,1.458,0.561
			c0.356,0.356,0.535,0.812,0.535,1.366v2.669h-1.004v-2.607c0-0.271-0.1-0.506-0.3-0.703c-0.198-0.194-0.437-0.291-0.716-0.291
			c-0.31,0-0.556,0.097-0.738,0.291c-0.159,0.171-0.239,0.391-0.239,0.659v2.651h-0.994v-4.525h0.941V36.657z"/>
		<path fill="#1C1601" d="M176.896,36.785v-2.183h0.994v6.337h-0.968v-0.389c-0.419,0.306-0.874,0.459-1.365,0.459
			c-0.648,0-1.201-0.228-1.657-0.685c-0.46-0.457-0.689-1.006-0.689-1.648c0-0.642,0.229-1.191,0.689-1.648
			c0.456-0.457,1.007-0.685,1.652-0.685C176.026,36.344,176.475,36.49,176.896,36.785z M175.539,37.338
			c-0.366,0-0.678,0.13-0.938,0.389c-0.26,0.257-0.389,0.573-0.389,0.95s0.129,0.694,0.389,0.95c0.26,0.259,0.576,0.389,0.95,0.389
			c0.371,0,0.686-0.128,0.941-0.384c0.262-0.26,0.394-0.578,0.394-0.955c0-0.374-0.132-0.692-0.394-0.955
			C176.237,37.466,175.919,37.338,175.539,37.338z"/>
		<path fill="#1C1601" d="M182.82,39.393l0.95-2.987h1.047l-2.214,6.399h-1.061l0.76-2.121l-1.493-4.27h1.078L182.82,39.393z"/>
		<path fill="#1C1601" d="M187.344,36.344c0.631,0,1.172,0.227,1.626,0.68c0.454,0.454,0.681,1.002,0.681,1.645
			c0,0.654-0.229,1.209-0.685,1.666c-0.454,0.451-1.002,0.676-1.645,0.676c-0.65,0-1.203-0.228-1.657-0.685
			c-0.456-0.453-0.685-1.005-0.685-1.653c0-0.639,0.225-1.187,0.676-1.644C186.109,36.571,186.672,36.344,187.344,36.344z
			 M187.312,37.347c-0.365,0-0.678,0.13-0.937,0.389c-0.257,0.257-0.385,0.567-0.385,0.933c0,0.377,0.131,0.695,0.394,0.954
			c0.256,0.257,0.568,0.385,0.937,0.385c0.371,0,0.686-0.128,0.941-0.385c0.262-0.259,0.394-0.576,0.394-0.95
			c0-0.364-0.128-0.678-0.385-0.937C188.016,37.477,187.696,37.347,187.312,37.347z"/>
		<path fill="#1C1601" d="M193.37,40.688c-0.298,0.215-0.65,0.322-1.057,0.322c-0.589,0-1.07-0.184-1.445-0.552
			c-0.359-0.36-0.539-0.821-0.539-1.384v-2.651h0.994v2.59c0,0.269,0.098,0.499,0.292,0.693c0.2,0.201,0.442,0.301,0.725,0.301
			c0.318,0,0.569-0.1,0.752-0.301c0.149-0.158,0.225-0.372,0.225-0.641v-2.643h1.004v4.517h-0.95V40.688z"/>
		<path fill="#1C1601" d="M196.178,36.675c0.263-0.212,0.634-0.322,1.114-0.331h0.45v1.012h-0.415
			c-0.729,0.009-1.1,0.319-1.113,0.933v2.651h-0.995v-4.525h0.959V36.675z"/>
		<path fill="#1C1601" d="M203.27,36.344c0.631,0,1.172,0.227,1.626,0.68c0.454,0.454,0.681,1.002,0.681,1.645
			c0,0.654-0.229,1.209-0.685,1.666c-0.454,0.451-1.002,0.676-1.645,0.676c-0.65,0-1.203-0.228-1.657-0.685
			c-0.456-0.453-0.685-1.005-0.685-1.653c0-0.639,0.225-1.187,0.676-1.644C202.035,36.571,202.598,36.344,203.27,36.344z
			 M203.238,37.347c-0.365,0-0.678,0.13-0.937,0.389c-0.257,0.257-0.385,0.567-0.385,0.933c0,0.377,0.131,0.695,0.394,0.954
			c0.256,0.257,0.568,0.385,0.937,0.385c0.371,0,0.686-0.128,0.941-0.385c0.262-0.259,0.394-0.576,0.394-0.95
			c0-0.364-0.128-0.678-0.385-0.937C203.941,37.477,203.622,37.347,203.238,37.347z"/>
		<path fill="#1C1601" d="M210.275,39.361l0.826-2.947h1.061l-1.388,4.525h-0.849l-0.94-2.807l-0.933,2.807h-0.854l-1.374-4.525
			h1.052l0.844,2.987l0.893-2.979h0.778L210.275,39.361z"/>
		<path fill="#1C1601" d="M213.612,36.657c0.309-0.21,0.661-0.313,1.056-0.313c0.596,0,1.082,0.188,1.459,0.561
			c0.356,0.356,0.534,0.812,0.534,1.366v2.669h-1.003v-2.607c0-0.271-0.101-0.506-0.301-0.703c-0.197-0.194-0.436-0.291-0.716-0.291
			c-0.31,0-0.556,0.097-0.738,0.291c-0.159,0.171-0.238,0.391-0.238,0.659v2.651h-0.994v-4.525h0.941V36.657z"/>
		<path fill="#1C1601" d="M223.439,36.949c0.41-0.404,0.909-0.605,1.498-0.605c0.602,0,1.087,0.186,1.459,0.557
			c0.358,0.356,0.539,0.812,0.539,1.37v2.669h-0.994v-2.607c0-0.269-0.099-0.501-0.297-0.698c-0.2-0.197-0.434-0.296-0.702-0.296
			c-0.244,0-0.464,0.078-0.658,0.234c-0.23,0.186-0.346,0.415-0.346,0.689v2.678h-0.994v-2.607c0-0.271-0.101-0.506-0.301-0.703
			c-0.197-0.194-0.436-0.291-0.716-0.291c-0.309,0-0.556,0.095-0.737,0.282c-0.159,0.171-0.239,0.391-0.239,0.659v2.66h-0.994
			v-4.525h0.95v0.243c0.304-0.21,0.651-0.313,1.043-0.313C222.537,36.344,223.033,36.545,223.439,36.949z"/>
		<path fill="#1C1601" d="M230.013,36.344c0.631,0,1.172,0.227,1.626,0.68c0.454,0.454,0.681,1.002,0.681,1.645
			c0,0.654-0.229,1.209-0.685,1.666c-0.454,0.451-1.002,0.676-1.645,0.676c-0.65,0-1.203-0.228-1.657-0.685
			c-0.456-0.453-0.685-1.005-0.685-1.653c0-0.639,0.225-1.187,0.676-1.644C228.778,36.571,229.341,36.344,230.013,36.344z
			 M229.981,37.347c-0.365,0-0.678,0.13-0.937,0.389c-0.257,0.257-0.385,0.567-0.385,0.933c0,0.377,0.132,0.695,0.394,0.954
			c0.256,0.257,0.568,0.385,0.937,0.385c0.371,0,0.686-0.128,0.941-0.385c0.262-0.259,0.394-0.576,0.394-0.95
			c0-0.364-0.128-0.678-0.385-0.937C230.685,37.477,230.365,37.347,229.981,37.347z"/>
		<path fill="#1C1601" d="M233.994,36.657c0.31-0.21,0.662-0.313,1.057-0.313c0.595,0,1.081,0.188,1.458,0.561
			c0.357,0.356,0.535,0.812,0.535,1.366v2.669h-1.003v-2.607c0-0.271-0.101-0.506-0.301-0.703c-0.198-0.194-0.437-0.291-0.716-0.291
			c-0.31,0-0.556,0.097-0.738,0.291c-0.159,0.171-0.238,0.391-0.238,0.659v2.651h-0.995v-4.525h0.941V36.657z"/>
		<path fill="#1C1601" d="M238.806,39.065c0.182,0.663,0.63,0.994,1.343,0.994c0.422,0,0.852-0.123,1.291-0.371l0.406,0.752
			c-0.551,0.38-1.131,0.569-1.741,0.569c-0.681,0-1.246-0.224-1.697-0.671c-0.447-0.451-0.672-1.008-0.672-1.671
			c0-0.66,0.225-1.214,0.672-1.662c0.431-0.436,0.964-0.653,1.601-0.653c0.586,0,1.065,0.188,1.44,0.561
			c0.415,0.413,0.623,0.963,0.623,1.648c0,0.077-0.006,0.235-0.018,0.478h-3.222C238.811,39.039,238.802,39.048,238.806,39.065z
			 M238.823,38.262h2.191c0.013,0,0.018-0.021,0.018-0.062c0-0.18-0.07-0.356-0.212-0.53c-0.212-0.262-0.495-0.394-0.849-0.394
			c-0.406,0-0.737,0.171-0.994,0.513c-0.118,0.157-0.177,0.302-0.177,0.438C238.801,38.249,238.809,38.262,238.823,38.262z"/>
		<path fill="#1C1601" d="M244.283,39.393l0.95-2.987h1.048l-2.214,6.399h-1.062l0.761-2.121l-1.494-4.27h1.078L244.283,39.393z"/>
		<path fill="#1C1601" d="M246.841,40.064c0.112,0,0.212,0.044,0.301,0.133c0.094,0.097,0.142,0.207,0.142,0.331
			s-0.043,0.229-0.128,0.314c-0.089,0.088-0.195,0.132-0.318,0.132c-0.136,0-0.248-0.046-0.336-0.137
			c-0.086-0.086-0.128-0.188-0.128-0.31c0-0.124,0.045-0.23,0.137-0.322C246.602,40.112,246.712,40.064,246.841,40.064z"/>
	</g>
	<g>
		<g>
			<g>
				<g>
					<path fill="#555555" d="M40.32,43.501H12.159c-1.169,0-2.201-0.591-2.817-1.49v11.116c0,1.556,1.261,2.816,2.817,2.816h28.161
						c1.557,0,2.816-1.261,2.816-2.816l0-11.114C42.521,42.91,41.489,43.501,40.32,43.501z"/>
					<path fill="#F0B51C" d="M12.159,42.905H40.32c1.555,0,2.816-1.261,2.816-2.815V11.928c0-1.458-1.108-2.657-2.527-2.802
						c-0.095-0.009-0.191-0.015-0.288-0.015H12.16c-1.556,0-2.816,1.262-2.816,2.816l0,18.311v9.852
						C9.343,41.645,10.604,42.905,12.159,42.905z"/>
					<path fill="#FFFFFF" d="M40.321,8.516L40.321,8.516H12.16c-1.882,0-3.413,1.53-3.413,3.412L8.747,32.526v20.601
						c0,1.881,1.53,3.412,3.412,3.412h28.161c1.881,0,3.413-1.531,3.413-3.412l0.001-41.2C43.733,10.046,42.203,8.516,40.321,8.516z
						 M9.343,11.928c0-1.556,1.261-2.816,2.816-2.816H40.32c0.098,0,0.194,0.005,0.289,0.015c1.419,0.145,2.527,1.343,2.527,2.802
						V40.09c0,1.555-1.262,2.815-2.816,2.815H12.159c-1.555,0-2.816-1.261-2.816-2.815v-9.852V11.928z M43.136,53.127
						c0,1.556-1.259,2.816-2.816,2.816H12.159c-1.556,0-2.817-1.261-2.817-2.816V42.011c0.616,0.899,1.648,1.49,2.817,1.49H40.32
						c1.169,0,2.201-0.591,2.816-1.488L43.136,53.127z"/>
				</g>
				<path fill="#1C1601" d="M28.211,26.373l-0.002-6.05l1.58-0.375v0.793c0,0,0.408-1.043,1.358-1.285
					c0.293-0.074,0.439-0.029,0.439-0.029v1.544c0,0-0.359-0.016-0.828,0.172c-0.583,0.23-0.877,0.733-0.877,1.501l0.002,3.341
					L28.211,26.373L28.211,26.373z"/>
				<path fill="#1C1601" d="M19.886,28.341c0,0-0.257-0.385-0.257-1.746c0-0.549,0-3.013,0-3.013l-0.812,0.193v-1.242l0.815-0.191
					v-1.354l1.679-0.396v1.353l1.187-0.281v1.239l-1.187,0.282c0,0-0.002,2.468,0,3.067c0,1.395,0.371,1.663,0.371,1.663
					L19.886,28.341L19.886,28.341z"/>
				<path fill="#1C1601" d="M22.673,24.741c0-1.075,0.152-1.86,0.482-2.463c0.391-0.715,1.033-1.18,1.968-1.393
					c1.842-0.42,2.507,0.671,2.481,2.134c-0.01,0.521-0.007,0.777-0.007,0.777l-3.246,0.763v0.053c0,1.022,0.214,1.507,0.861,1.369
					c0.56-0.118,0.715-0.469,0.759-0.901c0.008-0.07,0.011-0.248,0.011-0.248l1.521-0.363c0,0,0.003,0.124,0.001,0.263
					c-0.014,0.581-0.183,2.021-2.295,2.521C23.207,27.728,22.673,26.505,22.673,24.741z M25.19,22.013
					c-0.538,0.121-0.82,0.649-0.833,1.523l1.633-0.389c0.003-0.04,0.004-0.127,0.003-0.264C25.99,22.225,25.787,21.876,25.19,22.013
					z"/>
				<path fill="#1C1601" d="M37.27,21.203c-0.063-1.843,0.414-3.306,2.471-3.771c1.311-0.298,1.809,0.044,2.06,0.373
					c0.243,0.314,0.336,0.738,0.336,1.332l0.002,0.109l-1.609,0.382c0,0-0.001-0.217-0.001-0.224
					c0.001-0.704-0.194-0.972-0.706-0.844c-0.608,0.152-0.854,0.729-0.854,1.878c0,0.407,0.001,0.48,0.001,0.536
					c0,1.165,0.159,1.7,0.86,1.554c0.608-0.127,0.692-0.66,0.702-1.129c0.001-0.072,0.004-0.308,0.004-0.308l1.606-0.38
					c0,0,0.001,0.118,0.001,0.25c-0.004,1.53-0.81,2.494-2.32,2.846C37.742,24.295,37.334,23.093,37.27,21.203z"/>
				<path fill="#1C1601" d="M31.709,23.783c0-1.402,0.821-1.845,2.058-2.356c1.111-0.46,1.135-0.688,1.14-1.087
					c0.006-0.337-0.15-0.625-0.703-0.483c-0.508,0.129-0.642,0.498-0.67,0.792c-0.014,0.157-0.01,0.31-0.01,0.31l-1.559,0.369
					c0,0-0.024-0.481,0.108-0.922c0.249-0.838,0.988-1.401,2.264-1.697c1.658-0.382,2.211,0.346,2.213,1.478c0,0,0,1.533,0,2.68
					c0,1.296,0.24,1.486,0.24,1.486l-1.53,0.361c0,0-0.143-0.295-0.205-0.55c0,0-0.335,0.845-1.49,1.116
					C32.352,25.565,31.709,24.813,31.709,23.783z M34.896,21.869c0,0-0.317,0.233-0.813,0.477c-0.51,0.248-0.74,0.556-0.74,1.029
					c0,0.41,0.253,0.679,0.715,0.565c0.496-0.125,0.839-0.587,0.839-1.229C34.896,22.343,34.896,21.982,34.896,21.869L34.896,21.869
					z"/>
				<g>
					<path fill="#1C1601" d="M11.106,32.582c-0.534,0-0.97-0.436-0.97-0.971c0-0.189,0.054-0.37,0.156-0.528l0.011-0.015
						l0.019-0.004l2.285-0.54v1.734l-0.036,0.009c-0.519,0.125-1.138,0.268-1.266,0.294C11.241,32.575,11.173,32.582,11.106,32.582z
						"/>
				</g>
				<g>
					<path fill="#1C1601" d="M11.106,34.801c-0.534,0-0.97-0.433-0.97-0.969c0-0.188,0.054-0.371,0.156-0.526l0.011-0.017
						l0.019-0.005l2.285-0.539v1.734l-0.036,0.01c-0.519,0.124-1.138,0.268-1.266,0.294C11.241,34.796,11.173,34.801,11.106,34.801z
						"/>
				</g>
				<g>
					<path fill="#1C1601" d="M11.106,37.025c-0.534,0-0.97-0.434-0.97-0.971c0-0.19,0.054-0.371,0.156-0.526l0.011-0.019
						l2.303-0.542v1.734l-0.036,0.01c-0.548,0.132-1.155,0.27-1.266,0.293C11.241,37.018,11.173,37.025,11.106,37.025z"/>
				</g>
				<path fill="#1C1601" d="M10.837,30.456l-0.001-9.706l1.77-0.418v9.707L10.837,30.456L10.837,30.456z"/>
				<path fill="#1C1601" d="M15.244,29.631c0-0.601-0.489-1.092-1.091-1.092c-0.604,0-1.092,0.491-1.092,1.092l0.002,9.072
					c0,1.628,1.325,2.956,2.954,2.956c0.827,0,3.091-0.004,3.091-0.004l0.001-3.786c0.001-2.067,0.001-4.172,0.001-4.219
					c0-0.479-0.237-0.924-0.635-1.19l-2.754-1.871c0,0,0,4.062,0,4.249c0,0.13-0.106,0.235-0.235,0.235
					c-0.13,0-0.235-0.105-0.235-0.235C15.249,34.792,15.244,30.191,15.244,29.631z"/>
				<g>
					<path fill="#1C1601" d="M16.719,22.862c-1.143,0.264-1.576,1.218-1.576,1.218v-0.682l-1.593,0.377l0.001,4.356
						c0.185-0.073,0.388-0.114,0.601-0.114c0.412,0,0.788,0.153,1.077,0.407v-2.812c0-0.674,0.335-1.213,0.813-1.318
						c0.361-0.079,0.662,0.05,0.662,0.691l0.001,4.104l1.678-0.394v-4.342C18.384,23.303,17.979,22.566,16.719,22.862z"/>
				</g>
			</g>
			<g>
				<g>
					<g>
						<path fill="#1C1601" d="M41.103,16.65c-0.571,0-1.036-0.466-1.036-1.037c0-0.572,0.465-1.039,1.036-1.039
							c0.571,0,1.037,0.467,1.037,1.039C42.14,16.185,41.674,16.65,41.103,16.65z M41.103,14.706c-0.5,0-0.907,0.407-0.907,0.908
							c0,0.5,0.407,0.906,0.907,0.906c0.5,0,0.906-0.406,0.906-0.906C42.009,15.112,41.604,14.706,41.103,14.706z"/>
					</g>
				</g>
				<g>
					<path fill="#1C1601" d="M40.725,14.995h0.447c0.178,0,0.321,0.088,0.321,0.326c0,0.165-0.073,0.29-0.211,0.312v0.002
						c0.125,0.013,0.192,0.081,0.197,0.26c0.003,0.08,0.004,0.181,0.008,0.258c0.004,0.062,0.033,0.092,0.06,0.109H41.32
						c-0.021-0.024-0.028-0.062-0.034-0.112c-0.007-0.076-0.005-0.147-0.008-0.239c-0.004-0.138-0.046-0.199-0.186-0.199h-0.165
						v0.551h-0.202V14.995z M41.089,15.559c0.13,0,0.203-0.078,0.203-0.205c0-0.136-0.059-0.206-0.192-0.206h-0.172v0.411H41.089z"
						/>
				</g>
			</g>
		</g>
		<g>
			<g>
				<path fill="#FFFFFF" d="M13.153,50.865v0.342c0,0.501,0.135,0.994,0.541,0.994c0.366,0,0.517-0.278,0.58-0.804h0.986
					c-0.04,0.995-0.517,1.552-1.55,1.552c-1.59,0-1.653-1.225-1.653-2.291c0-1.144,0.223-2.208,1.701-2.208
					c1.28,0,1.566,0.857,1.566,2.169v0.246H13.153z M14.274,50.215c-0.024-0.652-0.104-1.018-0.556-1.018
					c-0.437,0-0.564,0.453-0.564,0.85v0.168H14.274z"/>
				<path fill="#FFFFFF" d="M18.18,50.348v0.845h-2.018v-0.845H18.18z"/>
				<path fill="#FFFFFF" d="M21.512,48.07v0.787h-1.041v3.98h-0.962v-3.98h-1.041V48.07H21.512z"/>
				<path fill="#FFFFFF" d="M21.504,49.244h0.882v0.48h0.013c0.187-0.347,0.447-0.574,0.828-0.574c0.054,0,0.114,0.008,0.167,0.015
					v0.881c-0.093-0.007-0.193-0.014-0.287-0.014c-0.32,0-0.681,0.168-0.681,0.647v2.158h-0.922V49.244z"/>
				<path fill="#FFFFFF" d="M23.821,50.346V50.26c0-0.829,0.568-1.109,1.263-1.109c1.095,0,1.302,0.455,1.302,1.102v1.891
					c0,0.334,0.02,0.487,0.113,0.695h-0.881c-0.06-0.115-0.087-0.255-0.114-0.375h-0.013c-0.214,0.375-0.474,0.467-0.914,0.467
					c-0.642,0-0.869-0.546-0.869-1.028c0-0.674,0.274-0.947,0.908-1.12l0.521-0.141c0.273-0.074,0.367-0.181,0.367-0.421
					c0-0.274-0.12-0.44-0.427-0.44c-0.28,0-0.428,0.187-0.428,0.466v0.101H23.821z M25.504,51.04
					c-0.127,0.095-0.28,0.154-0.394,0.182c-0.374,0.079-0.521,0.26-0.521,0.581c0,0.273,0.101,0.5,0.348,0.5s0.567-0.16,0.567-0.554
					V51.04z"/>
				<path fill="#FFFFFF" d="M27.105,49.244h0.881v0.421H28c0.194-0.354,0.528-0.515,0.915-0.515c0.574,0,0.915,0.314,0.915,1.022
					v2.665h-0.921v-2.479c0-0.36-0.121-0.501-0.394-0.501c-0.314,0-0.488,0.194-0.488,0.595v2.385h-0.922V49.244z"/>
				<path fill="#FFFFFF" d="M31.219,51.662v0.119c0,0.314,0.167,0.521,0.48,0.521c0.28,0,0.468-0.141,0.468-0.429
					c0-0.232-0.154-0.339-0.334-0.406l-0.648-0.233c-0.508-0.18-0.768-0.494-0.768-1.001c0-0.595,0.374-1.083,1.322-1.083
					c0.835,0,1.229,0.375,1.229,1.022v0.147H32.14c0-0.36-0.106-0.541-0.407-0.541c-0.234,0-0.434,0.133-0.434,0.387
					c0,0.173,0.093,0.32,0.4,0.421l0.554,0.187c0.581,0.193,0.794,0.488,0.794,1.029c0,0.754-0.561,1.127-1.335,1.127
					c-1.035,0-1.322-0.453-1.322-1.142v-0.126H31.219z"/>
				<path fill="#FFFFFF" d="M33.809,49.872h-0.467v-0.628h0.467v-0.406c0-0.648,0.368-0.862,0.961-0.862
					c0.167,0,0.328,0.007,0.494,0.021v0.654c-0.06-0.007-0.12-0.007-0.18-0.007c-0.26,0-0.354,0.079-0.354,0.288v0.312h0.534v0.628
					H34.73v2.966h-0.922V49.872z"/>
				<path fill="#FFFFFF" d="M36.473,51.182v0.286c0,0.421,0.113,0.835,0.454,0.835c0.307,0,0.435-0.233,0.487-0.675h0.828
					c-0.033,0.835-0.434,1.302-1.302,1.302c-1.335,0-1.389-1.028-1.389-1.922c0-0.962,0.187-1.857,1.429-1.857
					c1.075,0,1.315,0.722,1.315,1.824v0.207H36.473z M37.414,50.633c-0.02-0.547-0.087-0.854-0.467-0.854
					c-0.368,0-0.474,0.381-0.474,0.714v0.14H37.414z"/>
				<path fill="#FFFFFF" d="M38.875,49.244h0.882v0.48h0.013c0.187-0.347,0.448-0.574,0.828-0.574c0.053,0,0.114,0.008,0.167,0.015
					v0.881c-0.094-0.007-0.194-0.014-0.288-0.014c-0.32,0-0.681,0.168-0.681,0.647v2.158h-0.922V49.244z"/>
			</g>
		</g>
	</g>
</g>
</svg>
