<?xml version="1.0" encoding="utf-8"?>
<!-- Generator: Adobe Illustrator 19.0.1, SVG Export Plug-In . SVG Version: 6.00 Build 0)  -->
<svg version="1.1" id="Layer_1" xmlns="http://www.w3.org/2000/svg" xmlns:xlink="http://www.w3.org/1999/xlink" x="0px" y="0px"
	 viewBox="222.6 289 526.9 216" style="enable-background:new 222.6 289 526.9 216;" xml:space="preserve">
<style type="text/css">
	.st0{fill:#F0B51C;}
	.st1{fill:#FFFFFF;}
	.st2{fill:#555555;}
	.st3{fill:#1C1601;}
</style>
<g>
	<g>
		<path class="st0" d="M434.9,483.9c0,9.6-7.8,17.4-17.4,17.4H243.6c-9.6,0-17.4-7.8-17.4-17.4V310.1c0-9.6,7.8-17.4,17.4-17.4
			h173.9c9.6,0,17.4,7.8,17.4,17.4V483.9z"/>
		<path class="st1" d="M728.4,289l-310.9,0c0,0,0,0,0,0h-3.9l-170,0c-11.6,0-21.1,9.5-21.1,21.1v0v173.9v0
			c0,11.6,9.4,21.1,21.1,21.1h173.9c0,0,0,0,0,0l310.9,0c11.6,0,21.1-9.4,21.1-21.1V310.1C749.4,298.5,740,289,728.4,289z
			 M243.6,501.3c-9.6,0-17.4-7.8-17.4-17.4V310.1c0-9.6,7.8-17.4,17.4-17.4h173.9c9.6,0,17.4,7.8,17.4,17.4v173.9
			c0,9.6-7.8,17.4-17.4,17.4L243.6,501.3z M745.8,483.9c0,9.6-7.8,17.4-17.4,17.4l-299,0c5.5-3.8,9.2-10.2,9.2-17.4V310.1
			c0-7.2-3.6-13.6-9.2-17.4l299,0c9.6,0,17.4,7.8,17.4,17.4V483.9z"/>
	</g>
	<g>
		<g>
			<path class="st2" d="M438.6,310.1v173.9c0,7.2-3.6,13.6-9.2,17.4l299,0c9.6,0,17.4-7.8,17.4-17.4V310.1c0-9.6-7.8-17.4-17.4-17.4
				l-299,0C434.9,296.5,438.6,302.9,438.6,310.1z"/>
		</g>
	</g>
	<g>
		<g>
			<path class="st3" d="M342.7,399.3l0-37.4l9.8-2.3v4.9c0,0,2.5-6.4,8.4-7.9c1.8-0.5,2.7-0.2,2.7-0.2v9.5c0,0-2.2-0.1-5.1,1.1
				c-3.6,1.4-5.4,4.5-5.4,9.3l0,20.6L342.7,399.3L342.7,399.3z"/>
			<path class="st3" d="M291.3,411.4c0,0-1.6-2.4-1.6-10.8c0-3.4,0-18.6,0-18.6l-5,1.2v-7.7l5-1.2V366l10.4-2.5v8.4l7.3-1.7v7.7
				l-7.3,1.7c0,0,0,15.2,0,18.9c0,8.6,2.3,10.3,2.3,10.3L291.3,411.4L291.3,411.4z"/>
			<path class="st3" d="M308.5,389.2c0-6.6,0.9-11.5,3-15.2c2.4-4.4,6.4-7.3,12.1-8.6c11.4-2.6,15.5,4.1,15.3,13.2
				c-0.1,3.2,0,4.8,0,4.8l-20,4.7v0.3c0,6.3,1.3,9.3,5.3,8.5c3.5-0.7,4.4-2.9,4.7-5.6c0-0.4,0.1-1.5,0.1-1.5l9.4-2.2
				c0,0,0,0.8,0,1.6c-0.1,3.6-1.1,12.5-14.2,15.6C311.8,407.6,308.5,400.1,308.5,389.2z M324.1,372.3c-3.3,0.8-5.1,4-5.1,9.4
				l10.1-2.4c0-0.2,0-0.8,0-1.6C329,373.6,327.8,371.5,324.1,372.3z"/>
			<path class="st3" d="M398.6,367.3c-0.4-11.4,2.6-20.4,15.3-23.3c8.1-1.8,11.2,0.3,12.7,2.3c1.5,1.9,2.1,4.6,2.1,8.2l0,0.7
				l-9.9,2.4c0,0,0-1.3,0-1.4c0-4.3-1.2-6-4.4-5.2c-3.8,0.9-5.3,4.5-5.3,11.6c0,2.5,0,3,0,3.3c0,7.2,1,10.5,5.3,9.6
				c3.8-0.8,4.3-4.1,4.3-7c0-0.5,0-1.9,0-1.9l9.9-2.3c0,0,0,0.7,0,1.5c0,9.4-5,15.4-14.3,17.6C401.6,386.4,399,379,398.6,367.3z"/>
			<path class="st3" d="M364.3,383.3c0-8.7,5.1-11.4,12.7-14.5c6.9-2.8,7-4.2,7-6.7c0-2.1-0.9-3.9-4.3-3c-3.1,0.8-4,3.1-4.1,4.9
				c-0.1,1-0.1,1.9-0.1,1.9l-9.6,2.3c0,0-0.1-3,0.7-5.7c1.5-5.2,6.1-8.7,14-10.5c10.2-2.4,13.6,2.1,13.7,9.1c0,0,0,9.5,0,16.5
				c0,8,1.5,9.2,1.5,9.2l-9.4,2.2c0,0-0.9-1.8-1.3-3.4c0,0-2.1,5.2-9.2,6.9C368.3,394.3,364.3,389.6,364.3,383.3z M384,371.4
				c0,0-2,1.4-5,2.9c-3.1,1.5-4.6,3.4-4.6,6.4c0,2.5,1.6,4.2,4.4,3.5c3.1-0.8,5.2-3.6,5.2-7.6C384,374.4,384,372.1,384,371.4
				L384,371.4z"/>
			<g>
				<path class="st3" d="M237.1,437.6c-3.3,0-6-2.7-6-6c0-1.2,0.3-2.3,1-3.3l0.1-0.1l0.1,0l14.1-3.3v10.7l-0.2,0.1
					c-3.2,0.8-7,1.6-7.8,1.8C237.9,437.5,237.5,437.6,237.1,437.6z"/>
			</g>
			<g>
				<path class="st3" d="M237.1,451.3c-3.3,0-6-2.7-6-6c0-1.2,0.3-2.3,1-3.3l0.1-0.1l0.1,0l14.1-3.3v10.7l-0.2,0.1
					c-3.2,0.8-7,1.7-7.8,1.8C237.9,451.2,237.5,451.3,237.1,451.3z"/>
			</g>
			<g>
				<path class="st3" d="M237.1,465c-3.3,0-6-2.7-6-6c0-1.2,0.3-2.3,1-3.3l0.1-0.1l14.2-3.3V463l-0.2,0.1c-3.4,0.8-7.1,1.7-7.8,1.8
					C237.9,465,237.5,465,237.1,465z"/>
			</g>
			<path class="st3" d="M235.5,424.5l0-59.9l10.9-2.6v59.9L235.5,424.5L235.5,424.5z"/>
			<path class="st3" d="M262.7,419.4c0-3.7-3-6.7-6.7-6.7c-3.7,0-6.7,3-6.7,6.7l0,56c0,10.1,8.2,18.2,18.2,18.2c5.1,0,19.1,0,19.1,0
				l0-23.4c0-12.8,0-25.8,0-26.1c0-3-1.5-5.7-3.9-7.3l-17-11.5c0,0,0,25.1,0,26.2c0,0.8-0.7,1.5-1.5,1.5c-0.8,0-1.4-0.6-1.4-1.5
				C262.7,451.2,262.7,422.8,262.7,419.4z"/>
			<g>
				<path class="st3" d="M271.8,377.6c-7.1,1.6-9.7,7.5-9.7,7.5v-4.2l-9.8,2.3l0,26.9c1.1-0.4,2.4-0.7,3.7-0.7
					c2.5,0,4.9,0.9,6.6,2.5v-17.4c0-4.2,2.1-7.5,5-8.1c2.2-0.5,4.1,0.3,4.1,4.3l0,25.3l10.4-2.4v-26.8
					C282.1,380.3,279.5,375.8,271.8,377.6z"/>
			</g>
		</g>
		<g>
			<g>
				<g>
					<path class="st3" d="M422.3,339.2c-3.5,0-6.4-2.9-6.4-6.4c0-3.5,2.9-6.4,6.4-6.4c3.5,0,6.4,2.9,6.4,6.4
						C428.7,336.4,425.8,339.2,422.3,339.2z M422.3,327.2c-3.1,0-5.6,2.5-5.6,5.6c0,3.1,2.5,5.6,5.6,5.6c3.1,0,5.6-2.5,5.6-5.6
						C427.9,329.7,425.4,327.2,422.3,327.2z"/>
				</g>
			</g>
			<g>
				<path class="st3" d="M420,329h2.8c1.1,0,2,0.5,2,2c0,1-0.4,1.8-1.3,1.9v0c0.8,0.1,1.2,0.5,1.2,1.6c0,0.5,0,1.1,0,1.6
					c0,0.4,0.2,0.6,0.4,0.7h-1.4c-0.1-0.1-0.2-0.4-0.2-0.7c0-0.5,0-0.9-0.1-1.5c0-0.9-0.3-1.2-1.1-1.2h-1v3.4H420L420,329L420,329z
					 M422.2,332.5c0.8,0,1.2-0.5,1.2-1.3c0-0.8-0.4-1.3-1.2-1.3h-1.1v2.5H422.2z"/>
			</g>
		</g>
	</g>
	<g>
		<path class="st1" d="M463.6,396.2v2.8c0,4.2,1.1,8.3,4.5,8.3c3,0,4.3-2.3,4.8-6.7h8.2c-0.3,8.3-4.3,12.9-12.9,12.9
			c-13.2,0-13.8-10.2-13.8-19.1c0-9.5,1.9-18.4,14.2-18.4c10.7,0,13.1,7.2,13.1,18.1v2.1L463.6,396.2L463.6,396.2z M473,390.8
			c-0.2-5.4-0.9-8.5-4.6-8.5c-3.6,0-4.7,3.8-4.7,7.1v1.4L473,390.8L473,390.8z"/>
		<path class="st1" d="M507.7,389.6v7.8H489v-7.8H507.7z"/>
		<path class="st1" d="M540.6,365.4v7.8h-10.3v39.5h-9.5v-39.5h-10.3v-7.8H540.6z"/>
		<path class="st1" d="M540.5,377h8.7v4.8h0.1c1.9-3.4,4.4-5.7,8.2-5.7c0.5,0,1.1,0.1,1.7,0.1v8.7c-0.9-0.1-1.9-0.1-2.8-0.1
			c-3.2,0-6.8,1.7-6.8,6.4v21.4h-9.1L540.5,377L540.5,377z"/>
		<path class="st1" d="M563.2,388v-0.9c0-8.2,5.6-11,12.5-11c10.9,0,12.9,4.5,12.9,10.9v18.7c0,3.3,0.2,4.8,1.1,6.9H581
			c-0.6-1.1-0.9-2.5-1.1-3.7h-0.1c-2.1,3.7-4.7,4.6-9.1,4.6c-6.4,0-8.6-5.4-8.6-10.2c0-6.7,2.7-9.4,9-11.1l5.2-1.4
			c2.7-0.7,3.6-1.8,3.6-4.2c0-2.7-1.2-4.4-4.2-4.4c-2.8,0-4.2,1.9-4.2,4.6v1L563.2,388L563.2,388z M579.9,394.8
			c-1.3,0.9-2.8,1.5-3.9,1.8c-3.7,0.8-5.2,2.6-5.2,5.8c0,2.7,1,5,3.4,5c2.5,0,5.6-1.6,5.6-5.5V394.8z"/>
		<path class="st1" d="M595.4,377h8.7v4.2h0.1c1.9-3.5,5.2-5.1,9.1-5.1c5.7,0,9.1,3.1,9.1,10.1v26.4h-9.1v-24.6c0-3.6-1.2-5-3.9-5
			c-3.1,0-4.8,1.9-4.8,5.9v23.7h-9.1L595.4,377L595.4,377z"/>
		<path class="st1" d="M636.2,401v1.2c0,3.1,1.7,5.2,4.8,5.2c2.8,0,4.6-1.4,4.6-4.2c0-2.3-1.5-3.4-3.3-4l-6.4-2.3
			c-5-1.8-7.6-4.9-7.6-9.9c0-5.9,3.7-10.7,13.1-10.7c8.3,0,12.2,3.7,12.2,10.1v1.5h-8.2c0-3.6-1.1-5.4-4-5.4c-2.3,0-4.3,1.3-4.3,3.8
			c0,1.7,0.9,3.2,4,4.2l5.5,1.9c5.8,1.9,7.9,4.8,7.9,10.2c0,7.5-5.6,11.2-13.2,11.2c-10.3,0-13.1-4.5-13.1-11.3V401L636.2,401
			L636.2,401z"/>
		<path class="st1" d="M661.9,383.2h-4.6V377h4.6v-4c0-6.4,3.6-8.5,9.5-8.5c1.7,0,3.2,0.1,4.9,0.2v6.5c-0.6-0.1-1.2-0.1-1.8-0.1
			c-2.6,0-3.5,0.8-3.5,2.8v3.1h5.3v6.2h-5.3v29.4h-9.1L661.9,383.2L661.9,383.2z"/>
		<path class="st1" d="M688.4,396.2v2.8c0,4.2,1.1,8.3,4.5,8.3c3,0,4.3-2.3,4.8-6.7h8.2c-0.3,8.3-4.3,12.9-12.9,12.9
			c-13.3,0-13.8-10.2-13.8-19.1c0-9.5,1.9-18.4,14.2-18.4c10.7,0,13.1,7.2,13.1,18.1v2.1L688.4,396.2L688.4,396.2z M697.7,390.8
			c-0.2-5.4-0.9-8.5-4.6-8.5c-3.6,0-4.7,3.8-4.7,7.1v1.4L697.7,390.8L697.7,390.8z"/>
		<path class="st1" d="M712.2,377h8.7v4.8h0.1c1.9-3.4,4.4-5.7,8.2-5.7c0.5,0,1.1,0.1,1.7,0.1v8.7c-0.9-0.1-1.9-0.1-2.9-0.1
			c-3.2,0-6.8,1.7-6.8,6.4v21.4h-9.1L712.2,377L712.2,377z"/>
	</g>
</g>
</svg>
