<?xml version="1.0" encoding="utf-8"?>
<!-- Generator: Adobe Illustrator 19.0.1, SVG Export Plug-In . SVG Version: 6.00 Build 0)  -->
<svg version="1.1" id="Layer_1" xmlns="http://www.w3.org/2000/svg" xmlns:xlink="http://www.w3.org/1999/xlink" x="0px" y="0px"
	 viewBox="285 402 579.6 167.2" style="enable-background:new 285 402 579.6 167.2;" xml:space="preserve">
<style type="text/css">
	.st0{fill:#ED1C24;}
	.st1{fill:url(#SVGID_1_);}
	.st2{fill:#00334E;}
</style>
<g>
	<path class="st0" d="M399,444.8c-3,0.7-5.2,1.2-7.4,0.3c-1.7-0.7-3-2.5-4.2-4.2l-20.6-28.2c-1.2-1.7-2.6-3.6-4.3-4.3
		c-2.2-0.9-4.4-0.3-7.4,0.3l-66.4,17.8v123.7l66.6-17.8c3.1-0.7,5.3-1.2,7.5-0.3c1.7,0.7,3,2.5,4.2,4.2l20.5,28.2
		c1.2,1.7,2.6,3.5,4.2,4.2c2.2,0.8,4.4,0.3,7.4-0.4l66.5-17.8V426.9L399,444.8z"/>
	
		<linearGradient id="SVGID_1_" gradientUnits="userSpaceOnUse" x1="293.82" y1="487.9418" x2="465.591" y2="487.9418" gradientTransform="matrix(1 0 0 1 0 4)">
		<stop  offset="5.600000e-03" style="stop-color:#ED1C24"/>
		<stop  offset="0.3315" style="stop-color:#ED1C24"/>
		<stop  offset="0.3933" style="stop-color:#BA141A"/>
		<stop  offset="0.5562" style="stop-color:#BA141A"/>
		<stop  offset="0.6348" style="stop-color:#ED1C24"/>
		<stop  offset="0.8315" style="stop-color:#ED1C24"/>
	</linearGradient>
	<path class="st1" d="M397.1,452.9c-3.1,0.7-5.2,1.2-7.5,0.4c-1.7-0.7-3.2-2.5-4.4-4.2l-21.6-29.6c-1.3-1.7-2.5-3.6-4.2-4.2
		c-2.2-0.8-4.4-0.3-7.4,0.3l-58.1,15.6v117.8l61.4-16.4c3.1-0.7,5.3-1.2,7.5-0.3c1.7,0.7,3,2.5,4.2,4.2l20.5,28.2
		c1.2,1.7,2.6,3.5,4.2,4.2c2.2,0.8,4.4,0.3,7.4-0.4l66.5-17.8V434.5L397.1,452.9z"/>
</g>
<g>
	<polygon class="st2" points="541.4,431.9 541.4,463.5 541.3,463.5 520.4,426.9 508.8,432.5 508.8,479.5 519.1,479.5 519.1,442 
		519.2,442 540.7,479.5 551.7,479.5 551.7,426.9 	"/>
	<path class="st2" d="M588.4,426.9L588.4,426.9l-15.3,7.5l-16.1,45.2h11.6l3.7-10.9h19.4l3.4,10.9h12L588.4,426.9z M575.1,459.6
		l6.7-20.8h0.1l6.5,20.8H575.1z"/>
	<path class="st2" d="M803.5,426.9L803.5,426.9l-15.4,7.5L772,479.5h11.6l3.7-10.9h19.4l3.4,10.9H822L803.5,426.9z M790.2,459.6
		l6.7-20.8h0.1l6.5,20.8H790.2z"/>
	<polygon class="st2" points="643.2,426.9 605.8,426.9 600.5,436.1 600.5,436.2 616.4,436.2 616.4,479.5 627.4,479.5 627.4,436.2 
		637.9,436.2 	"/>
	<polygon class="st2" points="647.6,432.2 647.6,479.5 658.6,479.5 658.6,426.9 658.6,426.9 	"/>
	<path class="st2" d="M691.2,425.5c-0.5,0-1,0-1.6,0.1l-18.2,8.9c-3.2,4.1-5.5,10.1-5.5,18.8c0,24.7,18.3,27.7,25.3,27.7
		c7,0,25.3-3,25.3-27.7C716.4,428.5,698.1,425.5,691.2,425.5z M691.2,471.6c-5.9,0-14.3-3.7-14.3-18.4s8.4-18.4,14.3-18.4
		c5.9,0,14.3,3.7,14.3,18.4S697.1,471.6,691.2,471.6z"/>
	<polygon class="st2" points="756.3,431.9 756.3,463.5 756.2,463.5 735.3,426.9 723.7,432.5 723.7,479.5 734,479.5 734,442 
		734.1,442 755.6,479.5 766.6,479.5 766.6,426.9 	"/>
	<polygon class="st2" points="864.6,470 838.4,470 838.4,426.9 827.4,432.2 827.4,479.5 859.1,479.5 	"/>
	<path class="st2" d="M544.2,522.2c2.2-1.1,6.5-3.2,6.5-10.8c0-5.4-3.3-13.5-16.2-13.5h-14.5l-11.1,5.4v47.2h22.3
		c10.8,0,13.6-1.8,16.6-4.8c2.8-2.7,4.5-6.7,4.5-10.9C552.3,529.8,550.6,524.6,544.2,522.2z M519.4,507H532c5,0,8.1,1.3,8.1,5.6
		c0,4.2-3.4,5.9-7.8,5.9h-12.9L519.4,507L519.4,507z M532.9,541.5h-13.5v-14.1h14c4,0,7.9,1.8,7.9,6.4
		C541.3,539.1,538.2,541.5,532.9,541.5z"/>
	<polygon class="st2" points="640.9,503 640.9,534.6 640.7,534.6 619.8,497.9 608.2,503.6 608.2,550.6 618.5,550.6 618.5,513 
		618.7,513 640.1,550.6 651.1,550.6 651.1,498 	"/>
	<path class="st2" d="M585.1,497.9L585.1,497.9l-15.3,7.5l-16.1,45.2h11.6l3.7-10.9h19.4l3.4,10.9h12L585.1,497.9z M571.8,530.6
		l6.7-20.8h0.1l6.5,20.8H571.8z"/>
	<polygon class="st2" points="705.6,498 688.6,501 671.3,519.4 671.3,498 660.3,503.3 660.3,550.6 671.3,550.6 671.3,532.8 
		676.5,527.5 692.7,550.6 706.9,550.6 684.2,519.5 	"/>
</g>
</svg>
