<?xml version="1.0" encoding="utf-8"?>
<!-- Generator: Adobe Illustrator 19.0.1, SVG Export Plug-In . SVG Version: 6.00 Build 0)  -->
<svg version="1.1" id="Layer_1" xmlns="http://www.w3.org/2000/svg" xmlns:xlink="http://www.w3.org/1999/xlink" x="0px" y="0px"
	 viewBox="128.8 315.8 709.7 146.6" style="enable-background:new 128.8 315.8 709.7 146.6;" xml:space="preserve">
<style type="text/css">
	.st0{fill:none;}
	.st1{fill:#00A664;}
	.st2{fill:#FFFFFF;}
</style>
<rect id="backgroundrect" x="270" y="273" class="st0" width="792" height="612"/>
<g>
	<rect x="128.8" y="315.8" class="st1" width="146.6" height="146.6"/>
	<path class="st2" d="M254.5,358.9v60.5l-52.4,30.2l-52.4-30.2v-60.5l52.4-30.2L254.5,358.9 M202.1,334l-47.7,27.5v55.1l47.7,27.5
		l47.7-27.5v-55.1L202.1,334 M195.6,360.5l-7.5,4.3v8.6l7.5,4.3l4.7-2.7l-2.8-1.6v-8.6l2.8-1.6L195.6,360.5 M206.8,362.6v10.8
		l18.7,10.8v13l-12.2,7l-6.5-3.8v14l-11.2,6.5h9.4l11.2-6.5v-9.7h5.6l13.1-7.6v-13l-18.7-10.8v-10.8l-11.2-6.5h-9.4L206.8,362.6
		 M197.5,381v9.7l15.9,9.2l4.7-2.7l-11.2-6.5V381l2.8-1.6l-4.7-2.7L197.5,381 M169.4,386.4v9.7l7.5,4.3l4.7-2.7l-2.8-1.6v-9.7
		l12.2-7l-4.7-2.7L169.4,386.4 M188.1,398.3v4.3l11.2-6.5l-3.7-2.1L188.1,398.3 M188.1,406.9v5.4l15-8.6v-5.4L188.1,406.9
		 M191.8,414.5l3.7,2.2l7.5-4.3V408L191.8,414.5 M184.4,400.4l-7.5,4.3h7.5L184.4,400.4z"/>
	<g>
		<path class="st1" d="M333.8,422.3c-0.2-10.2-0.2-20-0.2-29.4c0-13.1,0.1-25.6,0.5-37.2c3.7-0.1,6.4-0.2,8-0.2
			c21.7,0,31.1,9.2,31.1,32.8c0,23.1-10.6,34.7-31.2,34.7C339.5,423,336.8,422.7,333.8,422.3 M314.7,429.5c2.5-0.1,5.3-0.2,8.5-0.2
			c5.4,0,12.1,0.4,20.1,0.4c32.4,0,48.7-14.2,48.7-42.4c0-13.5-4.9-24.5-13.3-31.1c-7.8-6.2-17.4-7.5-30.7-7.5
			c-8.4,0-16.5,0.5-24.2,0.5c-3,0-5.9-0.1-9.2-0.4c1.2,10.2,1.3,21.6,1.3,34c0,2.1,0,4.3,0,6.4c0,3.7,0,7.1,0,10.5
			C316,410.7,315.9,420.6,314.7,429.5z"/>
		<path class="st1" d="M415.6,395.7c0-0.3,0-0.7,0-1.1c0-11.9,4.1-18,10.9-18c6,0,9.2,5.5,9.2,16.2c0,0.7-0.1,1.7-0.1,2.8
			L415.6,395.7 M415.6,401.5h36.2c0.1-1.3,0.1-2.6,0.1-3.8c0-16.9-9-26.2-25.2-26.2c-17.5,0-28.3,12.1-28.3,28.9
			c0,19,11,30.5,29.4,30.5c8,0,14.8-2,19.5-5.4l2.6-6.7l-1.2-0.8c-4.7,3.8-9.7,5.5-15.1,5.5C422.8,423.6,415.6,415.4,415.6,401.5z"
			/>
		<path class="st1" d="M462.6,413.4c2.6,7.8,8.3,12.2,15.3,12.2c5.7,0,8.8-3,8.8-7.9c0-5.3-5.1-6.9-13.8-10.5
			c-9.6-4-14.3-7.9-14.3-16.2c0-11.4,8.3-19.2,21.7-19.2c6.1,0,11.7,1.6,17.1,4.9c-1.5,3.4-2.7,7.1-3.4,11.1h-1.2
			c-3.4-7.2-8.1-10.9-14-10.9c-5.1,0-8.5,3.2-8.5,7.3c0,4.6,3.4,6.2,10,8.7c12.4,4.9,19.3,7.6,19.3,18.1c0,11.8-8.9,20.1-22.5,20.1
			c-7,0-12.7-1.3-17.6-4.6c0.4-2.4,0.8-6.7,1.5-13.1L462.6,413.4L462.6,413.4L462.6,413.4z"/>
		<path class="st1" d="M517.9,373.5c2.8,0,5.7-0.1,8.5-0.5c-0.4,5.9-0.5,10.9-0.5,15.2c0,28.9,0.6,40.6,0.6,43.4
			c0,17.5-8.1,25.4-27.3,26l-1.2-3.7c12.3-0.7,13-9.5,13-30.5c0-29.3-0.5-43.4-1.3-50.4C512.5,373.4,515.2,373.5,517.9,373.5
			 M518.7,347.6c5.3,0,9.6,4.3,9.6,9.7c0,5.4-4.3,9.6-9.6,9.6c-5.3,0-9.7-4.3-9.7-9.6C509,351.9,513.2,347.6,518.7,347.6z"/>
		<path class="st1" d="M567.3,398.4v13.7c0,7.3-3.1,11-8.2,11c-4.9,0-7.4-3.4-7.4-10.2C551.7,404.7,556.5,400.5,567.3,398.4
			 M567.8,422.1c1.3,5.7,5.1,8.5,10.7,8.5c3.7,0,8.2-0.8,12.4-2.6v-3c-0.1,0-0.2,0-0.4,0c-7,0-7.8-3-7.8-11.4c0-0.7,0-1.4,0-2.2
			l0.4-20.6c0-0.2,0-0.3,0-0.6c0-12.2-7.8-18.9-22.1-18.9c-7.5,0-14.2,2.9-21.1,9c1.1,2.7,1.9,5.3,2.6,7.6c3.7-6.1,7.9-9.1,13.3-9.1
			c6.8,0,11.3,4.5,11.3,11.7c0,0.6,0,1.3-0.1,2c-4.8,3.2-11.4,4.5-18.8,7c-8.4,2.8-12.5,7.4-12.5,15c0,10.2,6,16.5,16,16.5
			C558.7,431,564.4,427.8,567.8,422.1z"/>
		<path class="st1" d="M597.2,401.2c0-11-0.1-20.3-0.8-28.3c2.7,0.3,5.4,0.5,8.3,0.5c2.7,0,5.4-0.1,8.2-0.5
			c-0.4,6.1-0.6,11.2-0.6,15.1h0.6c2.8-10.9,9.1-16.6,18.2-16.6c0.2,0,0.3,0,0.6,0c-0.5,2.8-0.7,5.7-0.7,8.5c0,3,0.2,5.9,0.7,8.9
			c-2.8-1.1-5.4-1.8-7.7-1.8c-8,0-11.1,5.4-11.1,16.8c0,10.4,0.5,19,1.1,25.7c-2.8-0.4-5.8-0.6-8.7-0.6c-3,0-5.8,0.2-8.7,0.6
			C597,421.2,597.2,411.7,597.2,401.2z"/>
		<path class="st1" d="M664.6,378.9c7.4,0,10.9,7.6,10.9,22.9c0,14.5-4.2,21.9-11.5,21.9c-8.2,0-11.3-6.9-11.3-21.1
			C652.7,386.5,656.1,378.9,664.6,378.9 M675.7,429.6c2.8-0.5,5.6-0.7,8.4-0.7c2.7,0,5.6,0.2,8.3,0.7c-0.7-11-1.1-25.7-1.1-43.9
			c0-16.8,0.1-24.6,1.1-37.9c-3,0.3-5.9,0.5-8.8,0.5c-3,0-5.8-0.1-8.8-0.5c0.5,8,0.6,8.7,0.6,16.7v14.7c-4-5.2-9.1-7.6-15.7-7.6
			c-14.8,0-24.3,11.1-24.3,30.4c0,19.4,7.9,29.2,23.4,29.2c8,0,13.3-2.9,17-9.5C675.9,424.3,675.9,427,675.7,429.6z"/>
		<path class="st1" d="M705.5,401.4c0-10.1-0.3-19.6-0.9-28.3c3,0.4,5.9,0.5,8.9,0.5c3.1,0,6-0.1,8.9-0.5
			c-0.6,8.8-0.9,18.2-0.9,28.3c0,9.2,0.3,18.5,0.9,28.2c-2.8-0.4-5.8-0.6-8.9-0.6c-3,0-5.9,0.2-8.9,0.6
			C705.2,419.9,705.5,410.6,705.5,401.4 M713.9,347.3c5,0,8.9,4,8.9,9s-4,8.9-9,8.9c-5,0-8.9-3.9-8.9-8.9S708.8,347.3,713.9,347.3z"
			/>
		<path class="st1" d="M735.8,401.4c0-10.1-0.4-19.6-1-28.3c2.7,0.4,5.5,0.5,8.2,0.5c2.7,0,5.3-0.1,7.9-0.5v8.3
			c4.9-6.4,10.8-9.5,18.3-9.5c5.9,0,10.8,2.1,14,5.8c3.6,4.1,3.7,9.7,3.7,17.2c0,3.2-0.1,8.1-0.1,14.7c0,6.8,0.2,13.4,0.8,20
			c-3-0.4-5.9-0.6-8.9-0.6c-3,0-5.8,0.2-8.8,0.6c0.6-6.4,0.9-15.6,0.9-27.5c0-13.9-0.8-20.3-9.5-20.3c-7.7,0-10.1,6.4-10.1,19.5
			c0,6.6,0.2,16,0.8,28.3c-2.8-0.4-5.8-0.6-8.7-0.6c-3,0-5.8,0.2-8.7,0.6C735.4,419.9,735.8,410.6,735.8,401.4z"/>
		<path class="st1" d="M801.6,413.4c2.6,7.8,8.3,12.2,15.3,12.2c5.7,0,8.9-3,8.9-7.9c0-5.3-5.1-6.9-13.8-10.5
			c-9.6-4-14.3-7.9-14.3-16.2c0-11.4,8.3-19.2,21.7-19.2c6.1,0,11.7,1.6,17.1,4.9c-1.6,3.4-2.7,7.1-3.4,11.1h-1.2
			c-3.5-7.2-8.1-10.9-14-10.9c-5.1,0-8.5,3.2-8.5,7.3c0,4.6,3.4,6.2,10,8.7c12.4,4.9,19.3,7.6,19.3,18.1c0,11.8-8.9,20.1-22.5,20.1
			c-7,0-12.7-1.3-17.6-4.6c0.3-2.4,0.8-6.7,1.5-13.1L801.6,413.4L801.6,413.4z"/>
	</g>
</g>
</svg>
