<?xml version="1.0" encoding="utf-8"?>
<!-- Generator: Adobe Illustrator 19.0.1, SVG Export Plug-In . SVG Version: 6.00 Build 0)  -->
<svg version="1.1" id="Layer_1" xmlns="http://www.w3.org/2000/svg" xmlns:xlink="http://www.w3.org/1999/xlink" x="0px" y="0px"
	 viewBox="-179.8 386.5 108.2 19.3" style="enable-background:new -179.8 386.5 108.2 19.3;" xml:space="preserve">
<style type="text/css">
	.st0{fill:#ED1C2E;}
</style>
<g id="Layer_1_1_">
	<g>
		<g>
			<g>
				<path class="st0" d="M-137.3,401.7c-2.4,0-4.1-1.5-4.1-3.7s1.8-3.7,4.1-3.7c2.4,0,4.1,1.5,4.1,3.7
					C-133.1,400.2-134.9,401.7-137.3,401.7z M-137.3,399.9c1,0,1.6-0.9,1.6-1.9c0-1.1-0.6-2-1.6-2c-1.1,0-1.6,0.9-1.6,2
					C-138.9,399-138.3,399.9-137.3,399.9z"/>
				<path class="st0" d="M-113,401.5v-10h2.5v3.4l0,0c0.2-0.1,1-0.7,2.2-0.7c1.9,0,3.3,1.5,3.3,3.6c0,2.6-1.6,3.8-3.4,3.8
					c-1.3,0-2-0.6-2.2-0.8l0,0v0.7H-113z M-107.6,398c0-1-0.5-1.8-1.5-1.8c-0.8,0-1.5,0.7-1.5,1.8s0.5,1.8,1.5,1.8
					C-108.2,399.8-107.6,399.1-107.6,398z"/>
				<path class="st0" d="M-126.3,394.4h2.5v7.1h-2.5V394.4z M-125,390.8c-0.8,0-1.4,0.6-1.4,1.4c0,0.8,0.6,1.4,1.4,1.4
					s1.4-0.6,1.4-1.4C-123.7,391.4-124.3,390.8-125,390.8z"/>
				<path class="st0" d="M-94.4,401.5h2.4v-3.7c0-0.9,0.6-1.5,1.3-1.5c0.8,0,1.3,0.5,1.3,1.5v3.7h2.4v-4.3c0-1.6-1-3-2.9-3
					c-1.3,0-1.9,0.7-2.2,1h-0.1v-0.8h-2.2L-94.4,401.5L-94.4,401.5z"/>
				<polygon class="st0" points="-85.4,401.5 -83,401.5 -83,398.2 -82.9,398.2 -80.8,401.5 -78,401.5 -80.7,397.8 -78.1,394.4 
					-80.8,394.4 -82.9,397.4 -83,397.4 -83,391.5 -85.4,391.5 				"/>
				<path class="st0" d="M-142.1,394.5c-0.2-0.1-0.9-0.3-1.8-0.3c-2.2,0-3.9,1.4-3.9,3.7c0,2.1,1.5,3.7,3.8,3.7c1,0,1.7-0.3,1.9-0.3
					l-0.1-2.1c-0.2,0.1-0.7,0.4-1.3,0.4c-1,0-1.7-0.7-1.7-1.7s0.8-1.7,1.8-1.7c0.6,0,1,0.3,1.2,0.3L-142.1,394.5z"/>
				<path class="st0" d="M-114.6,394.4v7.1h-2.4v-0.7h-0.1c-0.3,0.2-0.8,0.9-2.4,0.9c-1.7,0-3.2-1.5-3.2-3.7c0-2.1,1.3-3.7,3.4-3.7
					c1.4,0,2,0.6,2.2,0.8h0.1v-0.6h2.4V394.4z M-120.1,397.9c0,1.2,0.7,1.9,1.5,1.9s1.5-0.7,1.5-1.8s-0.7-1.9-1.5-1.9
					S-120.1,396.9-120.1,397.9z"/>
				<path class="st0" d="M-96,394.4v7.1h-2.4v-0.7h-0.1c-0.3,0.2-0.8,0.9-2.4,0.9c-1.7,0-3.2-1.5-3.2-3.7c0-2.1,1.3-3.7,3.4-3.7
					c1.4,0,2,0.6,2.2,0.8h0.1v-0.6h2.4V394.4z M-101.5,397.9c0,1.2,0.7,1.9,1.5,1.9s1.5-0.7,1.5-1.8s-0.7-1.9-1.5-1.9
					C-100.9,396.1-101.5,396.9-101.5,397.9z"/>
				<path class="st0" d="M-155.7,401.3c0.7,0.2,1.7,0.4,2.9,0.4c2.1,0,4.2-0.8,4.2-3.1c0-3.2-4.4-2.7-4.4-4c0-0.7,0.7-0.8,1.3-0.8
					c0.9,0,2.1,0.4,2.3,0.5l0.2-2.2c-0.6-0.2-1.6-0.3-2.5-0.3c-2.1,0-4.2,0.8-4.2,2.9c0,3.1,4.4,2.5,4.4,4.1c0,0.6-0.6,0.9-1.4,0.9
					c-1.1,0-2.1-0.6-2.6-0.8L-155.7,401.3z"/>
				<path class="st0" d="M-127.5,399.6c-0.1,0-0.5,0.1-0.7,0.1c-0.5,0-1.1-0.2-1.1-1.1v-2.4h1.6v-1.8h-1.6v-2.3h-2.5v2.3h-1.1v1.8
					h1.1v2.8c0,1.5,0.7,2.7,2.6,2.7c0.5,0,1-0.1,1.4-0.1L-127.5,399.6z"/>
			</g>
			<path class="st0" d="M-175.2,396.7c-0.6-0.9-0.7-2.1-0.7-3.1c0-3.2,2.8-5.9,5.8-5.9h9.3l-3.6,3.6h-5.7
				C-172.5,391.4-175.3,393.7-175.2,396.7L-175.2,396.7z M-171.7,394.1c0.2-0.8,1-1.7,1.7-2.3l0,0c-1.3,0-2.9,0.6-4,2.3H-171.7z
				 M-169.8,392.3c-0.5,0.5-1.1,1.2-1.4,1.8h2.8C-168.7,393.5-169.3,392.8-169.8,392.3L-169.8,392.3z M-174.2,394.6
				c-0.3,0.6-0.5,1.3-0.6,2h2.6c0-0.7,0.1-1.4,0.4-2H-174.2z M-171.4,394.6c-0.2,0.6-0.3,1.3-0.4,2h3.9c-0.1-0.7-0.2-1.4-0.4-2
				H-171.4z M-165.7,394.1c-1.1-1.6-2.6-2.3-3.9-2.3l0,0c0.7,0.5,1.4,1.5,1.7,2.3H-165.7z M-167.8,394.6c0.2,0.6,0.3,1.3,0.3,2h2.6
				c0-0.7-0.2-1.4-0.6-2H-167.8z M-174,399.4c1.2,1.7,2.7,2.3,4,2.3l0,0c-0.7-0.5-1.5-1.5-1.7-2.3H-174z M-169.8,401.3
				c0.5-0.5,1.1-1.2,1.4-1.9h-2.8C-170.9,400.1-170.4,400.8-169.8,401.3L-169.8,401.3z M-171.9,399c-0.2-0.7-0.4-1.4-0.4-2h-2.6
				c0.1,0.7,0.2,1.4,0.6,2H-171.9z M-168.3,399c0.2-0.6,0.3-1.3,0.4-2h-3.9c0.1,0.7,0.2,1.4,0.4,2H-168.3z M-168,399.4
				c-0.3,0.8-1,1.7-1.7,2.3l0,0c1.3,0,2.8-0.6,3.9-2.3H-168z M-165.4,399c0.4-0.6,0.5-1.3,0.6-2h-2.6c0,0.6-0.1,1.3-0.3,2H-165.4z
				 M-164.4,396.8c0.1,3.1-2.7,5.4-5,5.4h-5.7l-3.6,3.6h9.3c3,0,5.8-2.7,5.8-5.9C-163.7,399-163.8,397.8-164.4,396.8L-164.4,396.8z"
				/>
		</g>
		<g>
			<g>
				<path class="st0" d="M-76.2,393.2c0-1,0.8-1.8,1.8-1.8s1.8,0.8,1.8,1.8s-0.8,1.8-1.8,1.8S-76.2,394.2-76.2,393.2z M-72.9,393.2
					c0-0.9-0.6-1.5-1.4-1.5s-1.4,0.6-1.4,1.5c0,0.9,0.6,1.5,1.4,1.5S-72.9,394.1-72.9,393.2z M-75,392.1h0.8c0.5,0,0.8,0.2,0.8,0.6
					c0,0.4-0.2,0.5-0.5,0.6l0.6,0.9h-0.4l-0.5-0.9h-0.2v0.9H-75V392.1z M-74.6,393h0.3c0.2,0,0.4,0,0.4-0.3c0-0.2-0.2-0.3-0.4-0.3
					h-0.4L-74.6,393L-74.6,393z"/>
			</g>
		</g>
	</g>
</g>
<g id="Layer_2">
</g>
</svg>

