<svg width="202" height="81" viewBox="0 0 202 81" xmlns="http://www.w3.org/2000/svg" xmlns:xlink="http://www.w3.org/1999/xlink"><title>E221F1B4-A39E-4D25-A46C-A4AB96141E9F</title><defs><path id="a" d="M77.018.502H.072v79.495h76.946V.502z"/></defs><g fill="none" fill-rule="evenodd"><g transform="translate(116.231 .251)"><mask id="b" fill="#fff"><use xlink:href="#a"/></mask><path d="M38.542.501C17.303.501.072 18.301.072 40.254c0 21.957 17.231 39.743 38.47 39.743 21.252 0 38.476-17.786 38.476-39.743C77.018 18.3 59.794.5 38.542.5" fill="#ED1C24" mask="url(#b)"/></g><path d="M197.116 13.08c-2.521 0-4.567 2.114-4.567 4.723 0 2.608 2.046 4.725 4.567 4.725 2.525 0 4.571-2.117 4.571-4.725 0-2.61-2.046-4.723-4.57-4.723m0 8.793c-2.135 0-3.87-1.822-3.87-4.07 0-2.243 1.735-4.068 3.87-4.068 2.139 0 3.875 1.825 3.875 4.068 0 2.248-1.736 4.07-3.876 4.07" fill="#FFF"/><path d="M199.234 16.622c0-1.05-.595-1.529-1.736-1.529h-2.033v5.423h.636v-2.408h1.099l1.48 2.408h.763l-1.566-2.408c.843-.135 1.357-.73 1.357-1.486zm-3.133.917v-1.88h1.099c.932 0 1.354.285 1.354.944 0 .652-.422.936-1.354.936H196.1zM153.602 28.375l-6.68-9c-.27-.368-.7-.61-1.185-.61-.47 0-.89.223-1.161.577L136.623 29.7v16.23l7.905-10.47c.283-.37.718-.61 1.209-.61.497 0 .939.246 1.217.619l6.712 9.072c.257.347.658.57 1.11.57.454 0 .857-.223 1.112-.57l6.711-9.072a1.528 1.528 0 0 1 1.219-.618c.49 0 .926.238 1.206.61l7.904 10.469v-16.23l-7.949-10.357a1.464 1.464 0 0 0-1.161-.577c-.484 0-.914.242-1.186.61l-6.678 9c-.273.36-.7.594-1.177.594-.478 0-.905-.233-1.175-.594zm19.326 29.453h-36.305l.026-.029-.026.029v-11.9h36.305l-.026.025.026-.024v11.899zM18.699 37.095c0 3.299-1.461 5.128-5.309 5.128h-3.268v-10.11c.417-.04 1.812-.073 2.225-.073h1.127c3.927 0 5.225 1.724 5.225 5.055m7.847 13.12c0-5.209-4.115-7.091-9.1-7.207v-.199c4.236-.352 7.725-2.189 7.725-6.618 0-4.93-3.947-5.85-8.355-5.85-5.302 0-11.53.145-16.816 0v1.695c1.115-.076 3.831.077 3.831 1.532v21.01c0 1.403-2.788 1.597-3.83 1.597v1.651c5.115-.136 11.182 0 16.318 0 5.406 0 10.227-1.885 10.227-7.611m-6.773-.528c0 4.31-1.45 6.354-6.508 6.354h-3.143V43.995h3.352c4.592 0 6.299 1.607 6.299 5.692M60.765 57.784c-2.377 0-4.75-.03-7.124.043V56.14c1.08 0 4.077-.065 4.077-1.562V35.09h-.082l-10.73 23.104H45.61L35.147 35.048h-.082v19.53c0 1.533 2.971 1.562 4.096 1.562l.043 1.687c-2.963-.099-7.006-.167-9.924 0V56.14c1.128 0 3.678-.094 3.678-1.562V33.594c0-1.44-2.636-1.557-3.678-1.557l-.043-1.695c3.383.142 7.004.142 10.379 0l8.987 19.47 9.156-19.431c3.252.148 6.922.103 10.165-.04v1.696c-1.072 0-3.907.076-3.907 1.557v20.984c0 1.497 2.793 1.562 3.907 1.562v1.687c-2.37-.073-4.783-.043-7.159-.043M92.938 44.05c0 5.237-.504 12.553-8.031 12.553-7.535 0-8.078-7.316-8.078-12.553 0-5.23.543-12.499 8.078-12.499 7.488 0 8.031 7.304 8.031 12.499m7.044 0c0-9.091-5.378-14.192-15.075-14.192-9.705 0-15.123 5.053-15.123 14.192 0 9.148 5.375 14.234 15.123 14.234 9.74 0 15.075-5.086 15.075-14.234" fill="#FFF"/></g></svg>